<svg width="184" height="107" viewBox="0 0 184 107" fill="none" xmlns="http://www.w3.org/2000/svg">
<g opacity="0.8">
<path d="M153.001 55.7522C147.865 56.0909 145.863 57.4948 147.578 59.4031C148.791 60.7531 155.689 60.644 166.139 59.1265C170.207 58.4638 173.678 58.1756 173.846 58.3618C174.724 59.3394 170.312 78.9893 168.74 81.0455C167.597 82.5412 168.539 85.6641 170.126 85.6137C171.289 85.6103 172.479 83.0413 174.358 76.227C179.679 57.415 179.166 53.7306 171.189 53.9361C169.018 53.9412 165.086 54.3237 162.438 54.7498C159.825 55.1292 155.59 55.6061 153.001 55.7522ZM6.29136 45.4192C2.09834 38.8517 1.93716 38.7587 0.925742 40.4871C0.193952 41.7484 0.266584 42.2616 2.19931 45.709C4.79037 50.3212 12.0408 58.5609 16.9452 62.3744C33.0987 75.0711 53.3654 81.8806 74.3721 81.6443C82.3543 81.5321 87.5732 80.6796 93.3207 78.427L97.7875 76.7368L102.73 78.7784C111.788 82.6287 119.408 83.497 130.139 82.1188C142.48 80.4569 156.542 76.0385 163.503 71.5905C169.874 67.6102 174.572 61.7676 172.94 59.9521C171.978 58.8816 170.773 59.445 168.188 62.0167C161.493 68.7498 149.003 74.0508 133.281 76.7935C122.467 78.6851 113.629 78.1924 105.994 75.3182C102.49 73.9272 102.4 73.7405 104.789 71.7291C110.258 67.0046 112.224 57.9505 109.562 49.8867C105.509 37.7677 91.9408 26.0442 79.42 23.788C68.7851 21.9006 63.5472 29.5636 67.5338 41.263C70.9451 51.2843 81.2595 64.8345 91.002 72.0419C92.0234 72.8324 92.4893 73.4382 92.2393 73.7653C91.3795 74.887 81.379 76.7297 75.1455 76.8843C47.8094 77.6021 18.3379 64.0968 6.29136 45.4192ZM71.1679 30.4311C76.3478 23.6554 96.7021 33.5904 103.584 46.2624C106.444 51.4335 107.402 56.5623 106.467 61.2294C105.999 63.5629 102.826 67.815 100.007 69.7809C97.9331 71.2786 97.5457 71.2796 95.5987 69.9781C94.4997 69.1878 93.0424 68.2581 92.475 67.8862C88.593 65.4697 79.9253 55.7409 75.6781 48.9403C70.5698 40.8356 68.8103 33.5154 71.1679 30.4311Z" fill="#29282D"/>
</g>
</svg>
