<svg width="1443" height="41" viewBox="0 0 1443 41" fill="none" xmlns="http://www.w3.org/2000/svg">
<g clip-path="url(#clip0_116_2304)">
<rect width="41" height="1443" transform="matrix(0 1 -1 0 1443 0)" fill="#FDFDF2"/>
<path d="M1433.35 1442.08L1433.35 21.8147L4.11963 21.8147L4.11963 1442.08L1433.35 1442.08Z" fill="#A47968"/>
<path d="M1150.55 8.41284L1145.16 9.37228C1139.26 8.93801 1136.35 8.51384 1150.55 8.41284Z" fill="#A47968"/>
<path d="M974.049 7.08989C966.224 6.54452 958.673 5.87797 952.079 4.97913C969.083 5.4235 977.018 6.36273 974.049 7.08989Z" fill="#A47968"/>
<path d="M-15.579 456.591C-13.6775 489 -17.5626 522.499 -17.7678 550.727L-16.1536 541.102L-17.5079 569.552L-15.1823 569.229C-16.2629 616.262 -13.8555 674.666 -17.5491 691.885L-13.8417 686.371L-16.7828 736.272L-14.2794 707.701C-13.4996 763.752 -16.3861 848.9 -16.3724 860.878L-14.9907 855.828C-14.2794 864.998 -15.196 872.229 -15.6475 881.803L-13.5818 874.431C-14.1427 958.892 -9.46411 981.989 -11.6528 1076.27C-11.1604 1101.96 -10.9827 1062.03 -9.81982 1061.62C-8.17822 1075.66 -9.75146 1108.67 -10.6681 1115.81C-7.4259 1108.35 -8.42444 1068.6 -5.8252 1098.78C-7.42578 1120.22 -2.82947 1084.15 -3.45874 1121.87L-7.61743 1136.66C-6.89233 1157.65 -4.36145 1140.85 -4.77185 1174.03C-6.57764 1211.91 -9.49146 1127.67 -10.0934 1188.67C-9.81982 1219.25 -0.476318 1252.99 -2.70618 1312.26C-0.5448 1363.38 3.76428 1285.36 2.69727 1356.08L5.41956 1310.8C6.59607 1322.51 8.67529 1315.13 7.7998 1345.77C6.19922 1355.44 4.12 1374.41 3.91479 1390.95C7.06116 1324.7 8.64795 1449.03 12.7246 1387.37L12.5741 1410.36C12.7383 1407.5 13.135 1406.78 13.4496 1408.29L13.7371 1438.83C14.6399 1420 15.0228 1375.2 18.0872 1396L18.8533 1440.25C21.1515 1428.44 22.109 1444.65 23.9695 1442.07L28.4155 1311.93C27.0338 1317.04 26.1309 1335.78 24.7218 1328.8C23.5043 1294.06 27.2253 1300.43 25.3102 1267.81L23.4771 1282.22C24.1747 1279.63 24.3936 1275.04 24.6261 1282.16C25.8163 1293.6 24.421 1298.61 23.2719 1298.7C20.9326 1287.26 22.5057 1254.34 24.12 1244.54C23.819 1202.28 19.9204 1235.85 19.209 1226.53C23.1215 1204.67 19.1133 1155.96 20.9189 1129.78L18.3881 1146.6C15.3239 1114.43 17.8408 1085.64 18.7437 1066.79L16.6644 1074.09C17.0612 1029.32 10.0571 1007.12 17.4442 973.021L16.0626 977.747C15.4197 959.376 13.8601 931.492 16.0626 913.889C15.2007 913.485 14.12 910.354 13.8601 902.921C16.7056 892.973 14.5579 873.885 14.038 846.809C13.2993 864.776 9.60571 859.039 8.71655 877.976C4.9408 836.205 12.8341 839.679 12.7794 804.584C10.8916 783.537 10.7137 823.449 9.33203 828.489C11.343 774.306 0.809448 717.154 8.18286 682.968L10.5358 706.226C12.1364 684.685 12.109 673.01 11.425 675.625C11.6576 682.564 10.9736 684.897 10.276 687.351C6.45935 622.291 15.6932 585.59 14.2021 519.904C12.8204 524.792 12.3689 534.174 11.2062 534.578C9.76978 504.341 18.3607 505.128 15.5016 456.298L13.9012 465.872C12.9436 449.612 15.2555 437.554 15.7206 439.745C9.4552 438.463 16.0215 336.379 7.85461 302.334C11.3019 278.398 13.9832 209.884 12.0953 188.949C8.33337 158.923 7.96411 215.54 4.46204 204.38C4.43469 180.859 7.89575 168.507 6.67822 133.463C10.1528 132.877 13.7507 202.714 15.7343 136.785L13.8601 127.555C14.1063 134.392 14.8177 143.764 14.3663 153.328C12.3007 172.396 12.027 141.886 11.0967 137.513L12.1501 66.7365C15.8574 61.5656 14.9956 103.892 15.9258 108.265C15.7343 94.6814 15.269 80.4312 14.7219 65.8882C14.4346 58.6166 14.1337 51.2744 13.8328 43.912L13.7234 41.1448L13.6686 39.7612L13.6138 38.9027L13.3813 35.469C13.2308 33.0754 13.094 30.6819 12.9436 28.2984C16.2677 28.1873 19.5919 28.0863 22.9025 27.9753C24.6261 27.9248 26.3499 27.8743 28.0735 27.8339C30.6316 27.7935 33.1898 27.743 35.7479 27.7026C46.1993 27.5309 56.5413 27.3996 66.6918 27.3289C86.9927 27.1875 106.541 27.2683 124.708 27.7329L118.019 26.7027C207.964 29.0357 170.522 21.6935 242.081 26.0867C279.879 25.3696 228.456 23.1781 285.529 22.966C301.657 22.9559 292.204 23.986 289.318 24.3395C359.455 25.309 320.193 21.744 384.913 24.2587L370.959 21.3602C448.087 23.3498 528.935 28.4297 595.569 27.1774C591.588 24.9455 550.357 25.1575 533.955 23.4608C624.242 27.5006 750.521 23.9658 833.968 26.1271C809.03 28.0358 873.476 30.5506 820.015 32.1362C806.198 29.2377 781.123 31.1464 752.518 30.8233C798.784 37.1353 945.924 27.7531 960.083 33.2269L972.299 30.995C985.103 31.3282 1017.59 33.0148 995.186 33.7218L1087.25 32.2776C1054.93 30.591 986.772 26.7027 965.377 29.1165C939.194 26.7431 1003.09 27.541 979.905 24.8142C1041.52 28.5408 1017.77 23.2387 1081.57 24.0466C1052.71 27.2885 1145.05 28.4297 1142.18 29.9951C1163.05 29.3993 1209.45 30.894 1227.4 31.9948C1264.3 32.2978 1348.93 29.6921 1408.15 30.8132C1385.75 29.8032 1350.27 28.46 1352.89 26.3998C1367.4 26.9855 1382.63 27.2683 1394.93 27.1067C1398 27.0663 1400.89 26.9956 1403.53 26.9047C1404.86 26.8441 1406.12 26.7835 1407.32 26.733C1407.91 26.7027 1408.5 26.6623 1409.04 26.632C1409.45 26.5916 1409.86 26.5512 1410.25 26.5209C1413.38 26.1978 1415.91 25.7433 1417.37 25.1474C1414.76 25.0161 1412.28 24.895 1409.95 24.7738C1407.11 24.6728 1404.45 24.5718 1401.92 24.4809C1396.74 24.3092 1392.16 24.188 1388.09 24.1173C1379.95 23.9658 1373.86 23.9759 1369.15 24.1173C1359.75 24.3799 1355.9 25.1171 1352.35 25.9049C1345.27 27.4703 1339.41 29.2377 1292.75 27.8238C1269.7 25.0969 1244.12 24.4304 1196.06 23.6224C1217.96 22.057 1208.32 21.3804 1217.32 19.4817C1244.98 22.1984 1280.45 22.4812 1318.28 22.3196C1337.18 22.2085 1356.69 22.0974 1376.09 21.9863C1395.39 21.9258 1415.2 22.0065 1432.42 22.461C1432.26 25.9352 1432.07 29.3185 1431.85 32.5805C1431.56 35.4791 1431.23 37.6706 1430.88 39.3875C1430.52 41.2054 1430.14 42.7405 1429.74 43.9827C1428.95 46.5075 1428.09 48.1941 1427.28 50.8301C1425.66 56.1019 1424.21 65.1509 1423.79 92.2676L1421.41 45.6895C1423.57 96.9133 1419.11 57.7178 1418.24 100.034L1420.77 83.2085C1421.26 109.083 1420.82 118.576 1418.97 132.928L1422.89 111.022C1423.38 124.979 1423.87 150.793 1421.56 151.147C1422.52 154.732 1423.27 155.994 1423.94 155.994C1423.28 158.711 1422.87 165.306 1423 181.647C1423.45 172.083 1423.2 165.165 1424.36 164.963C1423.43 227.245 1428.6 179.526 1428.24 218.115C1429.14 212.005 1430.27 222.983 1430.75 236.809C1424.58 235.88 1423.78 312.352 1420.36 332.571L1420.45 332.329L1417.98 384.431C1418.48 373.867 1420.16 385.259 1420.81 400.408L1420.78 397.954C1421.74 414.507 1427.48 378.271 1425.7 427.929L1423.89 454.026C1424.1 449.36 1425.05 453.844 1425.51 456.298L1423.84 483.172C1429.6 524.277 1420.6 560.766 1423.42 609.131C1422.93 595.174 1423.37 573.925 1425.24 583.035C1425.95 592.407 1425.27 606.556 1424.35 613.838L1425.03 611.404L1421.23 703.56C1423.31 696.077 1423.46 644.509 1425.81 667.556C1428.63 681.19 1425.65 707.63 1425.43 724.183C1423.8 722.052 1422.37 691.552 1421.49 722.385C1422.3 726.152 1423.98 755.481 1425.14 741.645C1423.47 773.215 1422.48 819.066 1419.59 847.324C1420.3 856.282 1420.97 842.194 1421.2 837.487L1420.74 835.215C1421.64 816.198 1424.91 832.286 1423.23 794.939C1428.58 791.818 1424.71 848.779 1425.46 881.531L1429.1 829.307C1436.43 917.282 1428.5 1036.04 1428.39 1123.2C1426.72 1097.63 1428.3 1076.24 1424.13 1079.29C1422.12 1133.44 1423.04 1126.34 1422.19 1180.34L1422.41 1175.69C1424.54 1203.62 1420.42 1241.76 1424.17 1260.07C1426.47 1248.02 1422.01 1220.43 1426.66 1219.77L1426.31 1287.91C1429.06 1266.5 1426.66 1219.77 1427.32 1193.79C1427.06 1175.05 1426.68 1231.47 1423.64 1222.56C1423.79 1158.97 1426.77 1144.47 1431.14 1113.18C1434.36 1094.11 1434.42 1140.96 1434.45 1152.79C1429.63 1193.27 1427.4 1252.4 1429.58 1315.49L1433.11 1350.13C1431.51 1365.74 1429.12 1370.24 1427.25 1377.86C1426.31 1381.68 1425.5 1386.29 1424.97 1393.46C1424.71 1397.04 1424.51 1401.27 1424.41 1406.37C1424.35 1408.92 1424.32 1411.69 1424.32 1414.69C1424.35 1417.66 1424.36 1420.88 1424.39 1424.36L1426.92 1407.65C1427.41 1413.83 1427.74 1418.94 1427.95 1423.26C1428.03 1425.04 1428.1 1426.64 1428.17 1428.12C1428.21 1429.54 1428.22 1430.84 1428.22 1432.03C1428.47 1429.63 1428.7 1427.22 1428.95 1424.78C1429.19 1421.75 1429.44 1418.7 1429.69 1415.64C1430.19 1409.44 1430.71 1403.22 1431.22 1397.06C1432.28 1384.76 1433.32 1372.75 1434.28 1361.78C1435.91 1371.53 1436.31 1383.85 1436.05 1397.62C1435.91 1404.5 1435.61 1411.75 1435.21 1419.2C1434.99 1423.04 1434.77 1426.94 1434.56 1430.86C1434.31 1434.7 1434.06 1438.57 1433.8 1442.46C1420.08 1441.97 1406.18 1441.49 1392.54 1441C1379.07 1440.57 1365.86 1440.21 1353.32 1440.05C1356.65 1440.56 1378.97 1440.71 1385.62 1441.73C1290.3 1442.67 1190.48 1437.95 1116.85 1437.33C1085.73 1439.06 1178 1438.48 1162.83 1441.05C1124.13 1440.06 1080.41 1442.33 1070.04 1439.93C1086.96 1443.35 981.095 1440.19 1055.13 1443.38C915.61 1444.86 762.026 1441.73 621.055 1439.79C627.895 1440.82 627.895 1441.67 621.971 1442.37C669.687 1442.33 739.782 1443.3 766.267 1445.68C734.926 1447.43 692.094 1443.35 683.079 1444.38C699.085 1445.21 730.877 1445.19 731.424 1446.91C690.576 1448.84 667.69 1446.11 638.934 1445.79L654.529 1444.92C564.899 1442.6 605.063 1438.96 509.878 1439.9C475.405 1441.98 510.207 1441.61 510.795 1444.18C488.374 1443.17 416.103 1445.97 392.779 1443.25L450.385 1443.02C410.056 1442.3 371.931 1442.31 343.996 1441.42C346.883 1441.97 349.222 1442.54 357.772 1442.76C325.734 1441.93 284.612 1442.14 268.224 1440.43L259.209 1443.18C278.319 1441.96 335.46 1441.75 345.104 1443.29C339.619 1445.7 281.821 1444.19 256.514 1444.39C368.128 1445.15 369.496 1449.44 463.996 1447.65L448.059 1446.8C506.842 1444.72 567.416 1448.15 618.921 1448.07C604.42 1448.64 601.479 1449.64 608.292 1450.1C722.231 1447.95 834.31 1449.58 964.187 1448.28L1003.27 1450.99L1005.69 1448.93C1069.23 1448.02 1019.45 1451.84 1060.41 1451.64C1044.84 1451.64 1047.63 1451.3 1044.46 1450.79C1118.21 1453.13 1085.43 1448.87 1126.81 1449.53C1107.14 1447.32 1047.05 1448.74 1065.5 1445.81C1139.08 1448.15 1253.5 1446.85 1264.3 1451.82C1290.85 1451.44 1318.63 1451.23 1347.02 1451.17C1361.2 1451.17 1375.55 1451.17 1389.96 1451.17C1408.52 1451.22 1427.17 1451.28 1445.81 1451.34C1445.91 1439.85 1446.01 1428.38 1446.1 1416.95C1446.22 1408.58 1446.35 1400.26 1446.46 1391.99C1446.73 1375.46 1447.02 1359.19 1447.28 1343.38C1447.84 1311.79 1448.34 1282.11 1448.52 1256.2C1447.35 1244.63 1447.59 1263.42 1446.66 1258.97C1450.56 1225.45 1443.94 1146.49 1447.43 1145.95C1446.47 1129.73 1443.91 1122.96 1442.98 1118.55C1444.65 1097.04 1445.47 1071.28 1445.95 1043.94L1444.99 1063.93L1444.53 1061.75L1445.88 1033.37L1446.1 1034.42C1447.1 966.385 1446.25 887.762 1449.99 826.035C1447.72 861.584 1445.79 817.087 1444.42 833.882C1449.95 802.503 1450.07 727.294 1449.51 666.294C1448.34 666.556 1447.41 661.83 1446.5 668.99L1448.77 633.622L1447.37 638.308C1446.35 574.975 1452.52 506.007 1449.89 464.186C1449.23 490.04 1448.07 490.181 1446.21 492.777C1446.35 447.401 1446.42 404.6 1448.09 351.588C1447.74 354.426 1447.36 356.274 1446.94 356.355C1446.46 342.469 1447.83 325.774 1448.5 311.554L1445.72 309.625C1447 282.509 1445.57 247.494 1447.8 215.267C1444.73 202.633 1450.63 137.2 1449.34 99.9835C1450.01 85.7435 1446.14 131.009 1446.31 91.0759C1449.33 88.2481 1449.36 75.2906 1449.45 62.6463C1449.51 56.3241 1449.56 50.0827 1450.01 45.2249C1450.12 44.013 1450.27 42.8819 1450.44 41.8618C1450.52 41.3468 1450.62 40.8721 1450.71 40.4176C1450.77 40.1954 1450.82 39.9733 1450.88 39.7612C1450.93 39.3976 1450.99 39.0441 1451.04 38.7007C1451.52 35.9739 1452.13 34.0147 1452.94 33.1764L1452.02 8.01897L1427.07 8.53403L1414.9 8.79662L1408.95 8.92791L1405.46 9.0592L1395.02 6.66566C1354.84 11.1599 1333.83 4.65589 1274.05 6.0799C1277.21 6.59496 1283.61 6.76665 1280.55 7.11003C1261.23 6.61516 1216.68 6.30208 1251.2 5.08006C1219.34 5.10026 1110.92 3.98933 1159.58 6.52427C1156.06 5.15076 1200.62 6.32228 1219.89 6.81715C1217.36 8.87741 1169.48 8.05937 1157.59 10.3014C1156.05 10.0792 1149.74 9.72576 1145.17 9.38238L1138.35 10.6549C1078.48 8.39264 1017.63 10.0186 974.078 7.09993C971.547 7.73619 961.054 8.23105 940.48 8.07956L939.604 5.50423L875.952 5.55473L905.76 9.30158C835.911 10.0489 786.759 5.79711 729.399 5.16086C714.653 9.45307 617.443 3.53486 567.744 7.35241L612.573 8.51384C516.787 7.73619 501.547 10.3216 412.204 8.84711C487.991 7.41301 488.428 8.27145 598.811 4.75688C487.991 6.55456 407.348 2.33304 305.884 4.82758C312.669 5.84761 338.128 6.50407 313.299 7.5645C293.49 5.35274 217.704 7.64529 232.724 5.05986C201.22 5.93851 195.734 8.35225 176.473 8.70572L70.7273 5.53453L73.9695 6.0496C62.1364 6.44347 50.4126 6.76665 38.7848 7.02923C35.871 7.08983 32.9708 7.15042 30.0707 7.21102L23.5181 7.29182C20.9188 7.32211 18.306 7.34231 15.7069 7.37261C5.40588 7.4635 -4.84033 7.5443 -15.0729 7.63519C-14.9497 19.3706 -14.8267 31.0455 -14.7173 42.6597C-14.6761 49.5777 -14.6488 56.4554 -14.6078 63.3128C-14.6078 77.0176 -14.772 90.6214 -15.0182 104.165C-15.5106 131.251 -16.3998 158.085 -17.2753 185.04C-19.0126 238.96 -20.7227 293.355 -19.2179 351.184L-17.3575 348.609L-20.0934 381.947C-18.2739 355.82 -17.7542 393.258 -16.1263 395.308L-20.1755 480.627C-18.5476 482.546 -14.8403 477.517 -15.5653 456.591H-15.579ZM937.046 8.41284L964.406 8.59463C969.891 8.46334 975.555 8.43304 981.766 8.70572L964.406 8.59463C950.343 8.93801 940.015 10.0186 937.046 8.41284ZM1331.16 1450.53C1318 1449.34 1350.15 1450.16 1359.32 1449.99L1314.76 1449.68C1308.58 1450.37 1324.68 1450.36 1331.16 1450.53ZM938.647 25.0363L923.38 26.7633L903.845 25.41L938.647 25.0363ZM550.371 25.1878L589.071 26.1877L585.829 26.531L547.526 25.5312L550.357 25.1878H550.371ZM119.017 11.3114C121.466 11.4123 123.723 11.483 126.486 11.6547C124.051 11.584 121.466 11.4628 119.017 11.3114C89.1267 10.0691 77.2389 13.1595 52.9298 10.16C82.7655 7.5948 101.945 10.2509 119.017 11.3114ZM801.137 11.271C814.105 11.6042 820.48 11.7658 829.933 11.5941C823.202 10.5741 797.211 9.0491 816.253 8.69562C829.495 9.88734 873.886 10.1903 874.515 11.8971C835.897 10.0489 808.592 14.8663 801.15 11.271H801.137ZM1446.09 229.831L1445.84 222.65L1444.02 248.949L1446.09 229.831ZM1443.72 352.346C1440.73 366.919 1441.25 404.398 1440.59 430.323C1443.16 437.039 1446.13 410.71 1445.86 380.21C1448.13 344.519 1441.89 366.727 1443.72 352.346ZM502.984 14.6037L512.82 16.1287L503.558 16.3105L541.917 17.3003C491.506 19.4009 455.501 15.4824 429.755 14.8259C452.259 14.9875 513.736 18.7041 502.998 14.5936L502.984 14.6037ZM1442.26 613.525C1440.44 639.641 1438.19 686.745 1436.09 682.422C1440.04 684.089 1441.85 646.267 1441.82 634.501C1441.59 627.674 1441.81 622.735 1442.26 613.514V613.525ZM1434.83 612.121C1436.64 574.238 1438.48 571.643 1442.16 542.728C1443.83 580.227 1438.76 590.468 1436.65 586.004C1434.83 612.121 1437.39 607.071 1437.87 621.028L1434.83 612.121ZM1445.91 572.784L1445.36 557.352C1443.72 539.103 1439.25 535.305 1443.72 509.714L1445.36 557.352C1445.75 561.432 1445.98 566.482 1445.91 572.784ZM1445.7 891.297L1447.06 875.734C1446.92 891.085 1446.33 892.872 1445.7 891.297L1444.56 904.254C1443.13 870.492 1444.5 887.863 1445.7 891.297ZM1444.64 648.377L1445.03 603.617C1443.17 606.192 1444.15 634.117 1444.64 648.377ZM1442.2 881.308C1441.94 862.453 1441.4 813.269 1441.66 820.106C1443.75 824.57 1443.35 869.351 1442.2 881.308ZM855.035 1444.57L893.243 1444.71L874.775 1446.78L855.035 1444.57ZM1303.34 1443L1293.89 1444.03L1271.67 1443.88L1303.34 1443ZM1434.41 1232.92C1435.01 1234.38 1435.77 1233.59 1436.42 1231.06C1436.66 1226.41 1437.02 1222.35 1437.61 1220.43C1437.61 1224.6 1437.1 1228.59 1436.42 1231.06C1435.79 1243.29 1436.13 1261.5 1436.99 1269.79C1438.37 1264.88 1438.11 1246.05 1439.03 1238.76C1442.33 1266.67 1432.42 1329.35 1441.93 1311.46C1440.79 1323.28 1438.29 1363.7 1436.65 1349.73C1437.2 1317.76 1436.17 1257.17 1434.42 1232.91C1433.91 1231.49 1433.52 1228.84 1433.45 1223.34C1433.8 1224.95 1434.12 1228.59 1434.42 1232.91L1434.41 1232.92ZM1432.35 821.652C1432.59 810.118 1432.87 805.109 1433.19 802.827C1433.89 792.909 1434.95 785.365 1436.25 788.294C1435.1 812.401 1434.04 796.989 1433.19 802.827C1432.76 808.886 1432.44 815.42 1432.35 821.652ZM1431.78 748.947L1429.99 786.688L1432.04 767.671L1428.18 824.57C1426.28 791.929 1429.23 753.996 1431.78 748.947ZM1429.96 735.666L1432.23 727.879L1429.92 739.786L1429.97 735.666L1429.45 737.454L1430.75 673.858L1429.97 735.666H1429.96ZM1434.5 85.8747C1426.68 62.0403 1428.95 142.108 1425.17 154.54C1427.78 157.196 1431.86 181.313 1431.76 119.192C1434.39 172.87 1426.7 152.813 1433.26 184.767C1432.76 159.055 1434.8 128.09 1435.02 123.505L1435.29 153.803C1440.14 136.654 1432.9 107.164 1434.5 85.8747ZM1077.84 21.845L1023.83 21.7137L1074.95 22.1883L1077.84 21.845ZM6.34985 213.46C8.19666 210.642 11.5345 261.967 8.05981 274.177C7.55371 248.323 7.74524 220.065 6.34985 213.46ZM5.81628 636.39L7.37585 591.589C11.5756 600.224 7.19788 631.602 7.93652 652.609C5.85718 659.911 7.22534 643.368 5.82996 636.39H5.81628ZM5.80261 927.846L5.13232 942.096L9.29102 927.109L5.81628 927.836L5.80261 927.846ZM11.343 908.233C13.2172 917.222 14.0927 886.611 13.8601 879.39L11.343 908.233ZM14.9817 1170.8L14.7219 1152.11L11.0283 1169.01L14.9817 1170.8ZM10.6591 1141.04C13.3129 1136.65 16.8834 1138.51 15.105 1095.5C12.3143 1093.71 12.3416 1105.41 9.05835 1089.45C8.38806 1103.6 9.5647 1115.21 9.79724 1122.28C10.2487 1112.64 9.07214 1101.24 10.9189 1098.62C11.9723 1114.64 11.6302 1131.13 10.6453 1141.03C9.70142 1142.54 8.86682 1144.93 8.44275 1150.59C9.29089 1150.45 10.0708 1146.8 10.6453 1141.03L10.6591 1141.04ZM7.73157 985.221C7.4032 979.535 7.03394 974.626 6.55518 972.374L7.25269 969.779C8.45642 975.616 8.18298 980.666 7.7179 985.21C8.08716 991.432 8.40186 998.673 8.70276 1006.14C11.0558 1010.9 12.6562 981.453 13.9695 973.687C13.2992 987.705 11.001 999.824 12.4099 1018.4C13.1077 1015.94 13.5729 1018.28 13.5455 1006.58L14.0654 1032.23C10.7959 1061.59 9.76978 1033.56 8.70276 1006.14C8.18298 1005.27 7.64941 1003.2 7.04749 998.006C6.70544 993.633 7.2937 989.573 7.7179 985.21L7.73157 985.221ZM2.47827 1191.4L3.14868 1177.34C4.06519 1170.12 4.99561 1174.7 5.69324 1172.19C5.48804 1188.66 3.88733 1210.16 2.47827 1191.4ZM1.67139 347.912C2.38269 357.244 5.146 335.682 4.40723 314.716L7.89575 325.875C5.58374 326.411 5.87097 368.525 5.63843 373.251C2.41003 380.694 3.77795 364.293 1.65759 347.922L1.67139 347.912ZM889.686 19.9362C900.056 23.1882 972.737 21.239 988.797 22.0873C951 22.8044 865.049 23.5618 889.686 19.9362ZM1015.73 18.6132C1035.61 18.6536 1041.27 18.3506 1039.22 19.9766C1048.87 20.6532 1064.61 19.7847 1074.32 20.4613C1035.62 21.8955 1038.04 19.2999 1015.73 18.6132C1010.53 18.6031 1004.67 18.5728 997.265 18.4718C1005.28 18.3708 1010.86 18.4718 1015.73 18.6132ZM239.906 18.4112L213.477 16.0277L172.191 16.2398L239.906 18.4112ZM-6.24939 175.335C-4.38892 172.83 -4.34778 207.834 -5.2644 215.126C-2.82935 212.894 -3.14392 189.423 -2.88403 170.75C-2.67883 168.356 -2.55579 164.448 -2.56946 158.459C-2.74731 162.115 -2.82935 166.164 -2.88403 170.75C-3.45862 177.748 -4.70361 172.881 -5.56543 172.881L-6.27661 163.589L-6.93335 189.423L-6.24939 175.335ZM-8.87585 751.421C-6.97437 772.327 -7.672 774.821 -8.34229 788.889C-9.28625 784.375 -9.54614 765.631 -8.87585 751.421ZM31.3702 12.5839C27.4579 12.6546 24.1611 12.7152 21.3977 12.7657C18.2377 12.8263 15.7207 12.8969 13.7371 12.9676C9.78357 13.109 8.0188 13.2504 7.7179 13.412C7.12964 13.7251 12.328 14.0584 17.9504 14.4017C20.7137 14.5734 23.6686 14.7552 26.1857 14.9067C27.4032 14.9875 28.6343 15.0683 29.1815 15.1491C29.8655 15.2299 30.4128 15.3107 30.7821 15.3814C31.5209 15.5329 31.5208 15.6844 30.3716 15.8157C30.0844 15.846 29.7151 15.8863 29.2773 15.9166C29.0585 15.9267 28.8123 15.9469 28.5522 15.9671C28.224 15.9772 27.8546 15.9974 27.4716 16.0176C25.871 16.0782 23.819 16.1388 21.2744 16.1893L47.9775 15.9974C40.0022 16.3711 34.0378 16.5226 29.4004 16.5226C27.9913 16.5226 26.6918 16.5024 25.4742 16.4923C24.161 16.462 22.9435 16.4418 21.7943 16.4216C19.4961 16.361 17.4851 16.2701 15.6383 16.159C8.26489 15.7248 3.54541 15.0178 -5.56543 14.6643C-5.82532 17.8456 -5.94836 22.2691 -5.78418 28.662L-6.1261 14.2503L1.52087 14.1493C5.72058 13.7857 6.33606 13.513 4.33875 13.311C2.3551 13.109 -2.20007 12.9676 -8.02771 12.8565C-8.20557 18.2294 -8.43823 25.1777 -8.64343 31.0656C-8.7666 34.0551 -8.90332 36.792 -9.08118 38.9532C-9.10852 39.2259 -9.12219 39.4885 -9.14954 39.7309C-9.17688 39.8925 -9.20422 40.0541 -9.2179 40.2056C-9.27258 40.4984 -9.3136 40.7711 -9.36829 41.0034C-9.47778 41.4781 -9.60083 41.8214 -9.724 42.0133C-9.75134 41.3468 -9.79248 40.6499 -9.8335 39.9127C-9.86096 38.7916 -9.88818 37.6201 -9.91553 36.4082C-9.94287 33.9238 -9.97034 31.2777 -9.99768 28.5307C-10.025 23.0367 -9.99756 17.1589 -9.9292 11.4426C-1.6665 11.4931 6.43201 11.5739 13.5592 11.6749C17.116 11.7355 20.4401 11.786 23.4496 11.8264C24.9408 11.8567 26.3634 11.887 27.6904 11.9072C28.2102 11.9173 28.7028 11.9375 29.1815 11.9476C29.5782 11.9577 29.9614 11.9779 30.317 11.988C36.131 12.2203 37.7589 12.4526 31.343 12.5738L31.3702 12.5839ZM-10.4354 784.506C-8.05505 819.389 -12.9525 813.219 -13.3766 834.357C-15.5106 806.573 -11.092 810.633 -10.4354 784.506ZM-15.4696 223.68L-15.921 221.468L-17.2753 249.777L-16.8102 252.029L-15.4696 223.68Z" fill="#A47968"/>
<path d="M1131.48 30.8838C1132.55 30.4192 1136.66 30.1768 1142.19 30.0153C1141.51 30.2879 1138.84 30.5707 1131.48 30.8838Z" fill="#A47968"/>
<path d="M1223.91 32.0049C1225.09 32.0049 1226.35 32.0049 1227.43 32.0049C1228.22 32.0452 1229.39 32.1159 1230.32 32.1664L1223.91 31.9948V32.0049Z" fill="#A47968"/>
<path d="M369.976 27.7329C362.698 24.996 439.278 26.1372 461.59 25.4202C446.323 28.864 400.495 24.2789 369.976 27.7329Z" fill="#A47968"/>
</g>
<defs>
<clipPath id="clip0_116_2304">
<rect width="41" height="1443" fill="white" transform="matrix(0 1 -1 0 1443 0)"/>
</clipPath>
</defs>
</svg>
