<svg width="1443" height="41" viewBox="0 0 1443 41" fill="none" xmlns="http://www.w3.org/2000/svg">
<g clip-path="url(#clip0_116_2248)">
<path d="M9.64844 -1401.08L9.64844 19.1853L1438.88 19.1853L1438.88 -1401.08L9.64844 -1401.08Z" fill="#29282D"/>
<path d="M292.453 32.5872L297.843 31.6277C303.739 32.062 306.653 32.4862 292.453 32.5872Z" fill="#29282D"/>
<path d="M468.951 33.9101C476.776 34.4555 484.327 35.122 490.921 36.0209C473.917 35.5765 465.982 34.6373 468.951 33.9101Z" fill="#29282D"/>
<path d="M1458.58 -415.591C1456.68 -448 1460.56 -481.499 1460.77 -509.727L1459.15 -500.102L1460.51 -528.552L1458.18 -528.229C1459.26 -575.262 1456.86 -633.666 1460.55 -650.885L1456.84 -645.371L1459.78 -695.272L1457.28 -666.701C1456.5 -722.752 1459.39 -807.9 1459.37 -819.878L1457.99 -814.828C1457.28 -823.998 1458.2 -831.229 1458.65 -840.803L1456.58 -833.431C1457.14 -917.892 1452.46 -940.989 1454.65 -1035.27C1454.16 -1060.96 1453.98 -1021.03 1452.82 -1020.62C1451.18 -1034.66 1452.75 -1067.67 1453.67 -1074.81C1450.43 -1067.35 1451.42 -1027.6 1448.83 -1057.78C1450.43 -1079.22 1445.83 -1043.15 1446.46 -1080.87L1450.62 -1095.66C1449.89 -1116.65 1447.36 -1099.85 1447.77 -1133.03C1449.58 -1170.91 1452.49 -1086.67 1453.09 -1147.67C1452.82 -1178.25 1443.48 -1211.99 1445.71 -1271.26C1443.54 -1322.38 1439.24 -1244.36 1440.3 -1315.08L1437.58 -1269.8C1436.4 -1281.51 1434.32 -1274.13 1435.2 -1304.77C1436.8 -1314.44 1438.88 -1333.41 1439.09 -1349.95C1435.94 -1283.7 1434.35 -1408.03 1430.28 -1346.37L1430.43 -1369.36C1430.26 -1366.5 1429.86 -1365.78 1429.55 -1367.29L1429.26 -1397.83C1428.36 -1379 1427.98 -1334.2 1424.91 -1355L1424.15 -1399.25C1421.85 -1387.44 1420.89 -1403.65 1419.03 -1401.07L1414.58 -1270.93C1415.97 -1276.04 1416.87 -1294.78 1418.28 -1287.8C1419.5 -1253.06 1415.77 -1259.43 1417.69 -1226.81L1419.52 -1241.22C1418.83 -1238.63 1418.61 -1234.04 1418.37 -1241.16C1417.18 -1252.6 1418.58 -1257.61 1419.73 -1257.7C1422.07 -1246.26 1420.49 -1213.34 1418.88 -1203.54C1419.18 -1161.28 1423.08 -1194.85 1423.79 -1185.53C1419.88 -1163.67 1423.89 -1114.96 1422.08 -1088.78L1424.61 -1105.6C1427.68 -1073.43 1425.16 -1044.64 1424.26 -1025.79L1426.34 -1033.09C1425.94 -988.324 1432.94 -966.116 1425.56 -932.021L1426.94 -936.747C1427.58 -918.376 1429.14 -890.492 1426.94 -872.889C1427.8 -872.485 1428.88 -869.354 1429.14 -861.921C1426.29 -851.973 1428.44 -832.885 1428.96 -805.809C1429.7 -823.776 1433.39 -818.039 1434.28 -836.976C1438.06 -795.205 1430.17 -798.679 1430.22 -763.584C1432.11 -742.537 1432.29 -782.449 1433.67 -787.489C1431.66 -733.306 1442.19 -676.154 1434.82 -641.968L1432.46 -665.226C1430.86 -643.685 1430.89 -632.01 1431.57 -634.625C1431.34 -641.564 1432.03 -643.897 1432.72 -646.351C1436.54 -581.291 1427.31 -544.59 1428.8 -478.904C1430.18 -483.792 1430.63 -493.174 1431.79 -493.578C1433.23 -463.341 1424.64 -464.128 1427.5 -415.298L1429.1 -424.872C1430.06 -408.612 1427.74 -396.554 1427.28 -398.745C1433.54 -397.463 1426.98 -295.379 1435.15 -261.334C1431.7 -237.398 1429.02 -168.884 1430.9 -147.949C1434.67 -117.923 1435.04 -174.54 1438.54 -163.38C1438.57 -139.859 1435.1 -127.507 1436.32 -92.4628C1432.85 -91.877 1429.25 -161.714 1427.27 -95.7855L1429.14 -86.5547C1428.89 -93.3919 1428.18 -102.764 1428.63 -112.328C1430.7 -131.396 1430.97 -100.886 1431.9 -96.5126L1430.85 -25.7365C1427.14 -20.5656 1428 -62.892 1427.07 -67.265C1427.27 -53.6814 1427.73 -39.4312 1428.28 -24.8882C1428.57 -17.6166 1428.87 -10.2744 1429.17 -2.912L1429.28 -0.144787L1429.33 1.23882L1429.39 2.09726L1429.62 5.53104C1429.77 7.92458 1429.91 10.3181 1430.06 12.7016C1426.73 12.8127 1423.41 12.9137 1420.1 13.0247C1418.37 13.0752 1416.65 13.1257 1414.93 13.1661C1412.37 13.2065 1409.81 13.257 1407.25 13.2974C1396.8 13.4691 1386.46 13.6004 1376.31 13.6711C1356.01 13.8125 1336.46 13.7317 1318.29 13.2671L1324.98 14.2973C1235.04 11.9643 1272.48 19.3065 1200.92 14.9133C1163.12 15.6304 1214.54 17.8219 1157.47 18.034C1141.34 18.0441 1150.8 17.014 1153.68 16.6605C1083.55 15.691 1122.81 19.256 1058.09 16.7413L1072.04 19.6398C994.913 17.6502 914.065 12.5703 847.431 13.8226C851.412 16.0545 892.643 15.8425 909.045 17.5392C818.758 13.4994 692.479 17.0342 609.032 14.8729C633.97 12.9642 569.524 10.4494 622.985 8.86382C636.802 11.7623 661.877 9.85356 690.482 10.1767C644.216 3.86465 497.076 13.2469 482.917 7.77309L470.701 10.005C457.897 9.67177 425.407 7.98518 447.814 7.27823L355.749 8.72243C388.074 10.409 456.228 14.2973 477.623 11.8835C503.806 14.2569 439.907 13.459 463.095 16.1858C401.481 12.4592 425.229 17.7613 361.426 16.9534C390.291 13.7115 297.951 12.5703 300.824 11.0049C279.949 11.6007 233.547 10.106 215.599 9.00521C178.704 8.70223 94.0667 11.3079 34.8465 10.1868C57.2541 11.1968 92.726 12.54 90.1132 14.6002C75.5988 14.0145 60.3731 13.7317 48.0749 13.8933C44.997 13.9337 42.1105 14.0044 39.4703 14.0953C38.1433 14.1559 36.8848 14.2165 35.681 14.267C35.0927 14.2973 34.5045 14.3377 33.9573 14.368C33.5469 14.4084 33.1365 14.4488 32.7535 14.4791C29.6208 14.8022 27.09 15.2567 25.6263 15.8526C28.2391 15.9839 30.7152 16.105 33.0544 16.2262C35.8862 16.3272 38.5537 16.4282 41.0845 16.5191C46.2555 16.6908 50.8383 16.812 54.9149 16.8827C63.0544 17.0342 69.1419 17.0241 73.8478 16.8827C83.2459 16.6201 87.1036 15.8829 90.6467 15.0951C97.7329 13.5297 103.588 11.7623 150.25 13.1762C173.3 15.9031 198.882 16.5696 246.939 17.3776C225.038 18.943 234.682 19.6196 225.681 21.5183C198.02 18.8016 162.548 18.5188 124.723 18.6804C105.818 18.7915 86.3102 18.9026 66.9121 19.0137C47.6098 19.0742 27.8014 18.9935 10.5784 18.539C10.7426 15.0648 10.9341 11.6815 11.153 8.41945C11.4402 5.52094 11.7685 3.32939 12.1242 1.6125C12.4799 -0.205379 12.8629 -1.74048 13.2597 -2.9827C14.0531 -5.50753 14.9149 -7.19413 15.722 -9.83005C17.3363 -15.1019 18.7863 -24.1509 19.2104 -51.2676L21.5907 -4.68949C19.4293 -55.9133 23.8889 -16.7178 24.7644 -59.034L22.2337 -42.2085C21.7412 -68.083 22.1789 -77.5764 24.0257 -91.9275L20.1133 -70.0221C19.6208 -83.9794 19.1283 -109.793 21.4402 -110.147C20.4826 -113.732 19.7302 -114.994 19.0599 -114.994C19.7166 -117.711 20.127 -124.306 20.0038 -140.647C19.5524 -131.083 19.7986 -124.165 18.6358 -123.963C19.5661 -186.245 14.3951 -138.526 14.7644 -177.115C13.8616 -171.005 12.7261 -181.983 12.2473 -195.809C18.417 -194.88 19.2241 -271.352 22.6441 -291.571L22.5483 -291.329L25.0243 -343.431C24.5182 -332.867 22.8356 -344.259 22.1926 -359.408L22.22 -356.954C21.2624 -373.507 15.5168 -337.271 17.2952 -386.929L19.1146 -413.026C18.8958 -408.36 17.9519 -412.844 17.4867 -415.298L19.1557 -442.172C13.3965 -483.277 22.3978 -519.766 19.5798 -568.131C20.0722 -554.174 19.6345 -532.925 17.7603 -542.035C17.049 -551.407 17.733 -565.556 18.6495 -572.838L17.9655 -570.404L21.7685 -662.56C19.6892 -655.077 19.5387 -603.509 17.1858 -626.556C14.3677 -640.19 17.3499 -666.63 17.5688 -683.183C19.1967 -681.052 20.6331 -650.552 21.5086 -681.385C20.7015 -685.152 19.0189 -714.481 17.8561 -700.645C19.525 -732.215 20.5237 -778.066 23.4101 -806.324C22.6988 -815.282 22.0285 -801.194 21.7959 -796.487L22.261 -794.215C21.3581 -775.198 18.0887 -791.286 19.7713 -753.939C14.4224 -750.818 18.2938 -807.779 17.5415 -840.531L13.9026 -788.307C6.5702 -876.282 14.5045 -995.04 14.614 -1082.2C16.2829 -1056.63 14.696 -1035.24 18.8684 -1038.29C20.8793 -1092.44 19.9628 -1085.34 20.8109 -1139.34L20.5921 -1134.69C18.458 -1162.62 22.5756 -1200.76 18.8274 -1219.07C16.5291 -1207.02 20.9888 -1179.43 16.3376 -1178.77L16.6933 -1246.91C13.9436 -1225.5 16.3376 -1178.77 15.681 -1152.79C15.9409 -1134.05 16.3239 -1190.47 19.3609 -1181.56C19.2104 -1117.97 16.2282 -1103.47 11.8643 -1072.18C8.63586 -1053.11 8.58114 -1099.96 8.55378 -1111.79C13.3691 -1152.27 15.5989 -1211.4 13.4238 -1274.49L9.89441 -1309.13C11.495 -1324.74 13.8752 -1329.24 15.7494 -1336.86C16.6933 -1340.68 17.5004 -1345.29 18.0339 -1352.46C18.2938 -1356.04 18.4854 -1360.27 18.5948 -1365.37C18.6495 -1367.92 18.6769 -1370.69 18.6769 -1373.69C18.6495 -1376.66 18.6358 -1379.88 18.6085 -1383.36L16.0777 -1366.65C15.5852 -1372.83 15.2569 -1377.94 15.0517 -1382.26C14.9696 -1384.04 14.9012 -1385.64 14.8328 -1387.12C14.7918 -1388.54 14.7781 -1389.84 14.7781 -1391.03C14.5319 -1388.63 14.2993 -1386.22 14.0531 -1383.78C13.8069 -1380.75 13.5606 -1377.7 13.3144 -1374.64C12.8082 -1368.44 12.2884 -1362.22 11.7822 -1356.06C10.7152 -1343.76 9.67553 -1331.75 8.71794 -1320.78C7.09003 -1330.53 6.69332 -1342.85 6.95323 -1356.62C7.09003 -1363.5 7.39099 -1370.75 7.78771 -1378.2C8.00658 -1382.04 8.22546 -1385.94 8.44434 -1389.86C8.69058 -1393.7 8.93682 -1397.57 9.19673 -1401.46C22.9176 -1400.97 36.8164 -1400.49 50.4552 -1400C63.9299 -1399.57 77.1446 -1399.21 89.6754 -1399.05C86.3512 -1399.56 64.0257 -1399.71 57.3772 -1400.73C152.699 -1401.67 252.521 -1396.95 326.146 -1396.33C357.267 -1398.06 264.997 -1397.48 280.168 -1400.05C318.868 -1399.06 362.589 -1401.33 372.958 -1398.93C356.036 -1402.35 461.905 -1399.19 387.869 -1402.38C527.39 -1403.86 680.974 -1400.73 821.945 -1398.79C815.105 -1399.82 815.105 -1400.67 821.029 -1401.37C773.313 -1401.33 703.218 -1402.3 676.733 -1404.68C708.074 -1406.43 750.906 -1402.35 759.921 -1403.38C743.915 -1404.21 712.123 -1404.19 711.576 -1405.91C752.424 -1407.84 775.31 -1405.11 804.066 -1404.79L788.471 -1403.92C878.101 -1401.6 837.937 -1397.96 933.122 -1398.9C967.595 -1400.98 932.793 -1400.61 932.205 -1403.18C954.626 -1402.17 1026.9 -1404.97 1050.22 -1402.25L992.615 -1402.02C1032.94 -1401.3 1071.07 -1401.31 1099 -1400.42C1096.12 -1400.97 1093.78 -1401.54 1085.23 -1401.76C1117.27 -1400.93 1158.39 -1401.14 1174.78 -1399.43L1183.79 -1402.18C1164.68 -1400.96 1107.54 -1400.75 1097.9 -1402.29C1103.38 -1404.7 1161.18 -1403.19 1186.49 -1403.39C1074.87 -1404.15 1073.5 -1408.44 979.004 -1406.65L994.941 -1405.8C936.158 -1403.72 875.584 -1407.15 824.079 -1407.07C838.58 -1407.64 841.521 -1408.64 834.708 -1409.1C720.769 -1406.95 608.69 -1408.58 478.813 -1407.28L439.73 -1409.99L437.308 -1407.93C373.765 -1407.02 423.546 -1410.84 382.589 -1410.64C398.156 -1410.64 395.366 -1410.3 398.54 -1409.79C324.791 -1412.13 357.568 -1407.87 316.187 -1408.53C335.858 -1406.32 395.954 -1407.74 377.5 -1404.81C303.916 -1407.15 189.497 -1405.85 178.704 -1410.82C152.151 -1410.44 124.368 -1410.23 95.9818 -1410.17C81.7958 -1410.17 67.4456 -1410.17 53.0407 -1410.17C34.4771 -1410.22 15.8315 -1410.28 -2.81419 -1410.34C-2.90995 -1398.85 -3.00571 -1387.38 -3.10147 -1375.95C-3.22459 -1367.58 -3.34771 -1359.26 -3.45715 -1350.99C-3.73075 -1334.46 -4.01802 -1318.19 -4.27794 -1302.38C-4.83881 -1270.79 -5.34497 -1241.11 -5.52281 -1215.2C-4.34634 -1203.63 -4.59258 -1222.42 -3.66235 -1217.97C-7.56111 -1184.45 -0.940052 -1105.49 -4.42842 -1104.95C-3.47083 -1088.73 -0.912692 -1081.96 0.017539 -1077.55C-1.65141 -1056.04 -2.4722 -1030.28 -2.95099 -1002.94L-1.9934 -1022.93L-1.52829 -1020.75L-2.88259 -992.374L-3.10147 -993.424C-4.1001 -925.385 -3.25195 -846.762 -6.98655 -785.035C-4.7157 -820.584 -2.78683 -776.087 -1.41885 -792.882C-6.94551 -761.503 -7.06863 -686.294 -6.50776 -625.294C-5.34497 -625.556 -4.41474 -620.83 -3.49819 -627.99L-5.76905 -592.622L-4.3737 -597.308C-3.34771 -533.975 -9.51733 -465.007 -6.89079 -423.186C-6.23416 -449.04 -5.07137 -449.181 -3.21091 -451.777C-3.34771 -406.401 -3.41611 -363.6 -5.08505 -310.588C-4.74305 -313.426 -4.36002 -315.274 -3.93594 -315.355C-3.45715 -301.469 -4.82513 -284.774 -5.49545 -270.554L-2.71843 -268.625C-4.00434 -241.509 -2.56796 -206.494 -4.79778 -174.267C-1.73348 -161.633 -7.62951 -96.1996 -6.3436 -58.9835C-7.01391 -44.7435 -3.14251 -90.0087 -3.30667 -50.0759C-6.32992 -47.2481 -6.35728 -34.2906 -6.45304 -21.6463C-6.50776 -15.3241 -6.56248 -9.0827 -7.01391 -4.22492C-7.12335 -3.013 -7.27383 -1.88187 -7.43799 -0.861839C-7.52007 -0.346775 -7.61583 0.127892 -7.71159 0.582363C-7.76631 0.80455 -7.82103 1.02674 -7.87575 1.23882C-7.93047 1.6024 -7.98518 1.95588 -8.0399 2.29925C-8.5187 5.02607 -9.13429 6.98535 -9.94141 7.82359L-9.02485 32.981L15.9272 32.466L28.1023 32.2034L34.0531 32.0721L37.5414 31.9408L47.9792 34.3343C88.1569 29.8401 109.169 36.3441 168.95 34.9201C165.79 34.405 159.388 34.2333 162.452 33.89C181.768 34.3848 226.324 34.6979 191.796 35.9199C223.656 35.8997 332.083 37.0107 283.423 34.4757C286.939 35.8492 242.384 34.6777 223.109 34.1829C225.64 32.1226 273.519 32.9406 285.407 30.6986C286.953 30.9208 293.259 31.2742 297.828 31.6176L304.655 30.3451C364.518 32.6074 425.366 30.9814 468.922 33.9001C471.453 33.2638 481.946 32.7689 502.52 32.9204L503.396 35.4958L567.048 35.4453L537.24 31.6984C607.089 30.9511 656.241 35.2029 713.601 35.8391C728.347 31.5469 825.557 37.4651 875.256 33.6476L830.427 32.4862C926.213 33.2638 941.453 30.6784 1030.8 32.1529C955.009 33.587 954.572 32.7285 844.189 36.2431C955.009 34.4454 1035.65 38.667 1137.12 36.1724C1130.33 35.1524 1104.87 34.4959 1129.7 33.4355C1149.51 35.6473 1225.3 33.3547 1210.28 35.9401C1241.78 35.0615 1247.27 32.6478 1266.53 32.2943L1372.27 35.4655L1369.03 34.9504C1380.86 34.5565 1392.59 34.2333 1404.22 33.9708C1407.13 33.9102 1410.03 33.8496 1412.93 33.789L1419.48 33.7082C1422.08 33.6779 1424.69 33.6577 1427.29 33.6274C1437.59 33.5365 1447.84 33.4557 1458.07 33.3648C1457.95 21.6294 1457.83 9.95455 1457.72 -1.65969C1457.68 -8.57773 1457.65 -15.4554 1457.61 -22.3128C1457.61 -36.0176 1457.77 -49.6214 1458.02 -63.1646C1458.51 -90.2511 1459.4 -117.085 1460.28 -144.04C1462.01 -197.96 1463.72 -252.355 1462.22 -310.184L1460.36 -307.609L1463.09 -340.947C1461.27 -314.82 1460.75 -352.258 1459.13 -354.308L1463.18 -439.627C1461.55 -441.546 1457.84 -436.517 1458.57 -415.591H1458.58ZM505.954 32.5872L478.594 32.4054C473.109 32.5367 467.445 32.567 461.234 32.2943L478.594 32.4054C492.657 32.062 502.985 30.9814 505.954 32.5872ZM111.837 -1409.53C124.997 -1408.34 92.8492 -1409.16 83.6836 -1408.99L128.239 -1408.68C134.422 -1409.37 118.321 -1409.36 111.837 -1409.53ZM504.353 15.9637L519.62 14.2367L539.155 15.59L504.353 15.9637ZM892.629 15.8122L853.929 14.8123L857.171 14.469L895.474 15.4688L892.643 15.8122H892.629ZM1323.98 29.6886C1321.53 29.5877 1319.28 29.517 1316.51 29.3453C1318.95 29.416 1321.53 29.5372 1323.98 29.6886C1353.87 30.9309 1365.76 27.8405 1390.07 30.84C1360.23 33.4052 1341.06 30.7491 1323.98 29.6886ZM641.863 29.729C628.895 29.3958 622.52 29.2342 613.067 29.4059C619.798 30.4259 645.789 31.9509 626.747 32.3044C613.505 31.1127 569.114 30.8097 568.485 29.1029C607.103 30.9511 634.408 26.1337 641.85 29.729H641.863ZM-3.08779 -188.831L-2.84155 -181.65L-1.02213 -207.949L-3.08779 -188.831ZM-0.721173 -311.346C2.27472 -325.919 1.75488 -363.398 2.41152 -389.323C-0.160298 -396.039 -3.12883 -369.71 -2.85523 -339.21C-5.12609 -303.519 1.11193 -325.727 -0.721173 -311.346ZM940.016 26.3963L930.18 24.8713L939.442 24.6895L901.083 23.6997C951.494 21.5991 987.499 25.5176 1013.24 26.1741C990.741 26.0125 929.264 22.2959 940.002 26.4064L940.016 26.3963ZM0.742573 -572.525C2.562 -598.641 4.80549 -645.745 6.91219 -641.422C2.95871 -643.089 1.15297 -605.267 1.18033 -593.501C1.41289 -586.674 1.19401 -581.735 0.742573 -572.514V-572.525ZM8.17074 -571.121C6.365 -533.238 4.51822 -530.643 0.838331 -501.728C-0.830612 -539.227 4.24462 -549.468 6.35132 -545.004C8.17074 -571.121 5.61261 -566.071 5.13381 -580.028L8.17074 -571.121ZM-2.90995 -531.784L-2.36276 -516.352C-0.721173 -498.103 3.75214 -494.305 -0.721173 -468.714L-2.36276 -516.352C-2.74579 -520.432 -2.97835 -525.482 -2.90995 -531.784ZM-2.70475 -850.297L-4.05906 -834.734C-3.92226 -850.085 -3.33403 -851.872 -2.70475 -850.297L-1.55564 -863.254C-0.132938 -829.492 -1.50093 -846.863 -2.70475 -850.297ZM-1.63772 -607.377L-2.03444 -562.617C-0.173979 -565.192 -1.14525 -593.117 -1.63772 -607.377ZM0.797292 -840.308C1.05721 -821.453 1.6044 -772.269 1.34449 -779.106C-0.748533 -783.57 -0.351817 -828.351 0.797292 -840.308ZM587.965 -1403.57L549.757 -1403.71L568.225 -1405.78L587.965 -1403.57ZM139.662 -1402L149.114 -1403.03L171.331 -1402.88L139.662 -1402ZM8.59482 -1191.92C7.9929 -1193.38 7.22683 -1192.59 6.58388 -1190.06C6.33764 -1185.41 5.98196 -1181.35 5.39373 -1179.43C5.39373 -1183.6 5.89988 -1187.59 6.58388 -1190.06C7.21315 -1202.29 6.87115 -1220.5 6.00932 -1228.79C4.62766 -1223.88 4.88757 -1205.05 3.97102 -1197.76C0.674173 -1225.67 10.5784 -1288.35 1.07089 -1270.46C2.20632 -1282.28 4.70973 -1322.7 6.35132 -1308.73C5.80412 -1276.76 6.83012 -1216.17 8.58114 -1191.91C9.08729 -1190.49 9.48401 -1187.84 9.55241 -1182.34C9.19673 -1183.95 8.8821 -1187.59 8.58114 -1191.91L8.59482 -1191.92ZM10.6468 -780.652C10.4142 -769.118 10.127 -764.109 9.81233 -761.827C9.11465 -751.909 8.04762 -744.365 6.74804 -747.294C7.89714 -771.401 8.96417 -755.989 9.81233 -761.827C10.2364 -767.886 10.5647 -774.42 10.6468 -780.652ZM11.2214 -707.947L13.0134 -745.688L10.9614 -726.671L14.8192 -783.57C16.7207 -750.929 13.7658 -712.996 11.2214 -707.947ZM13.0408 -694.666L10.7699 -686.879L13.0818 -698.786L13.0271 -694.666L13.5469 -696.454L12.2473 -632.858L13.0271 -694.666H13.0408ZM8.49906 -44.8747C16.3239 -21.0403 14.0531 -101.108 17.8287 -113.54C15.2159 -116.196 11.1393 -140.313 11.235 -78.1924C8.6085 -131.87 16.2966 -111.813 9.74393 -143.767C10.2364 -118.055 8.1981 -87.09 7.97922 -82.5049L7.70563 -112.803C2.86295 -95.6542 10.0996 -66.1641 8.49906 -44.8747ZM365.161 19.155L419.169 19.2863L368.047 18.8117L365.161 19.155ZM1436.65 -172.46C1434.8 -169.642 1431.47 -220.967 1434.94 -233.177C1435.45 -207.323 1435.25 -179.065 1436.65 -172.46ZM1437.18 -595.39L1435.62 -550.589C1431.42 -559.224 1435.8 -590.602 1435.06 -611.609C1437.14 -618.911 1435.77 -602.368 1437.17 -595.39H1437.18ZM1437.2 -886.846L1437.87 -901.096L1433.71 -886.109L1437.18 -886.836L1437.2 -886.846ZM1431.66 -867.233C1429.78 -876.222 1428.91 -845.611 1429.14 -838.39L1431.66 -867.233ZM1428.02 -1129.8L1428.28 -1111.11L1431.97 -1128.01L1428.02 -1129.8ZM1432.34 -1100.04C1429.69 -1095.65 1426.12 -1097.51 1427.9 -1054.5C1430.69 -1052.71 1430.66 -1064.41 1433.94 -1048.45C1434.61 -1062.6 1433.44 -1074.21 1433.2 -1081.28C1432.75 -1071.64 1433.93 -1060.24 1432.08 -1057.62C1431.03 -1073.64 1431.37 -1090.13 1432.35 -1100.03C1433.3 -1101.54 1434.13 -1103.93 1434.56 -1109.59C1433.71 -1109.45 1432.93 -1105.8 1432.35 -1100.03L1432.34 -1100.04ZM1435.27 -944.221C1435.6 -938.535 1435.97 -933.626 1436.44 -931.374L1435.75 -928.779C1434.54 -934.616 1434.82 -939.666 1435.28 -944.21C1434.91 -950.432 1434.6 -957.673 1434.3 -965.136C1431.94 -969.903 1430.34 -940.453 1429.03 -932.687C1429.7 -946.705 1432 -958.824 1430.59 -977.397C1429.89 -974.943 1429.43 -977.276 1429.45 -965.581L1428.93 -991.233C1432.2 -1020.59 1433.23 -992.556 1434.3 -965.136C1434.82 -964.268 1435.35 -962.197 1435.95 -957.006C1436.29 -952.633 1435.71 -948.573 1435.28 -944.21L1435.27 -944.221ZM1440.52 -1150.4L1439.85 -1136.34C1438.93 -1129.12 1438 -1133.7 1437.31 -1131.19C1437.51 -1147.66 1439.11 -1169.16 1440.52 -1150.4ZM1441.33 -306.912C1440.62 -316.244 1437.85 -294.682 1438.59 -273.716L1435.1 -284.875C1437.42 -285.411 1437.13 -327.525 1437.36 -332.251C1440.59 -339.694 1439.22 -323.293 1441.34 -306.922L1441.33 -306.912ZM553.314 21.0638C542.944 17.8118 470.263 19.761 454.203 18.9127C492 18.1956 577.951 17.4382 553.314 21.0638ZM427.267 22.3868C407.39 22.3464 401.727 22.6494 403.779 21.0234C394.135 20.3468 378.389 21.2153 368.676 20.5387C407.377 19.1045 404.955 21.7001 427.267 22.3868C432.466 22.3969 438.334 22.4272 445.735 22.5282C437.719 22.6292 432.137 22.5282 427.267 22.3868ZM1203.09 22.5888L1229.52 24.9723L1270.81 24.7602L1203.09 22.5888ZM1449.25 -134.335C1447.39 -131.83 1447.35 -166.834 1448.26 -174.126C1445.83 -171.894 1446.14 -148.423 1445.88 -129.75C1445.68 -127.356 1445.56 -123.448 1445.57 -117.459C1445.75 -121.115 1445.83 -125.164 1445.88 -129.75C1446.46 -136.748 1447.7 -131.881 1448.57 -131.881L1449.28 -122.589L1449.93 -148.423L1449.25 -134.335ZM1451.88 -710.421C1449.97 -731.327 1450.67 -733.821 1451.34 -747.889C1452.29 -743.375 1452.55 -724.631 1451.88 -710.421ZM1411.63 28.4161C1415.54 28.3454 1418.84 28.2848 1421.6 28.2343C1424.76 28.1737 1427.28 28.1031 1429.26 28.0324C1433.22 27.891 1434.98 27.7496 1435.28 27.588C1435.87 27.2749 1430.67 26.9416 1425.05 26.5983C1422.29 26.4266 1419.33 26.2448 1416.81 26.0933C1415.6 26.0125 1414.37 25.9317 1413.82 25.8509C1413.13 25.7701 1412.59 25.6893 1412.22 25.6186C1411.48 25.4671 1411.48 25.3156 1412.63 25.1843C1412.92 25.154 1413.28 25.1137 1413.72 25.0834C1413.94 25.0733 1414.19 25.0531 1414.45 25.0329C1414.78 25.0228 1415.15 25.0026 1415.53 24.9824C1417.13 24.9218 1419.18 24.8612 1421.73 24.8107L1395.02 25.0026C1403 24.6289 1408.96 24.4774 1413.6 24.4774C1415.01 24.4774 1416.31 24.4976 1417.53 24.5077C1418.84 24.538 1420.06 24.5582 1421.21 24.5784C1423.5 24.639 1425.51 24.7299 1427.36 24.841C1434.74 25.2752 1439.45 25.9822 1448.57 26.3357C1448.83 23.1544 1448.95 18.7309 1448.78 12.338L1449.13 26.7497L1441.48 26.8507C1437.28 27.2143 1436.66 27.487 1438.66 27.689C1440.64 27.891 1445.2 28.0324 1451.03 28.1435C1451.21 22.7706 1451.44 15.8223 1451.64 9.93435C1451.77 6.94495 1451.9 4.20803 1452.08 2.04677C1452.11 1.77409 1452.12 1.51151 1452.15 1.26912C1452.18 1.10753 1452.2 0.945938 1452.22 0.794449C1452.27 0.501568 1452.31 0.228889 1452.37 -0.00339508C1452.48 -0.478065 1452.6 -0.821442 1452.72 -1.01333C1452.75 -0.346771 1452.79 0.350079 1452.83 1.08733C1452.86 2.20835 1452.89 3.37988 1452.92 4.5918C1452.94 7.07624 1452.97 9.72227 1453 12.4693C1453.03 17.9633 1453 23.8411 1452.93 29.5574C1444.67 29.5069 1436.57 29.4261 1429.44 29.3251C1425.88 29.2645 1422.56 29.214 1419.55 29.1736C1418.06 29.1433 1416.64 29.113 1415.31 29.0928C1414.79 29.0827 1414.3 29.0625 1413.82 29.0524C1413.42 29.0423 1413.04 29.0221 1412.68 29.012C1406.87 28.7797 1405.24 28.5474 1411.66 28.4262L1411.63 28.4161ZM1453.44 -743.506C1451.06 -778.389 1455.95 -772.219 1456.38 -793.357C1458.51 -765.573 1454.09 -769.633 1453.44 -743.506ZM1458.47 -182.68L1458.92 -180.468L1460.28 -208.777L1459.81 -211.029L1458.47 -182.68Z" fill="#29282D"/>
<path d="M311.522 10.1162C310.455 10.5808 306.337 10.8232 300.811 10.9847C301.495 10.7121 304.162 10.4293 311.522 10.1162Z" fill="#29282D"/>
<path d="M219.086 8.99515C217.909 8.99515 216.651 8.99515 215.57 8.99515C214.777 8.95475 213.614 8.88406 212.684 8.83356L219.086 9.00525V8.99515Z" fill="#29282D"/>
<path d="M1073.03 13.2671C1080.3 16.004 1003.72 14.8628 981.412 15.5798C996.679 12.136 1042.51 16.7211 1073.03 13.2671Z" fill="#29282D"/>
</g>
<defs>
<clipPath id="clip0_116_2248">
<rect width="41" height="1443" fill="white" transform="matrix(0 -1 1 0 0 41)"/>
</clipPath>
</defs>
</svg>
