<svg width="1443" height="63" viewBox="0 0 1443 63" fill="none" xmlns="http://www.w3.org/2000/svg">
<g clip-path="url(#clip0_116_2641)">
<rect width="1443" height="63" transform="matrix(-1 0 0 -1 1443 63)" fill="#FDFDF2"/>
<path d="M8.92908 26.3721L1431.17 26.3721V-1399.89H8.92908V26.3721Z" fill="#655D59"/>
<path d="M1119.99 13.4297C1115.82 12.7335 1113.24 11.9553 1115.22 10.9724L1119.99 13.4297Z" fill="#655D59"/>
<path d="M1212.95 20.8024C1221.31 21.0613 1227.13 21.1704 1232.13 21.2522C1226.4 21.3748 1221.61 21.2113 1212.95 20.8024Z" fill="#655D59"/>
<path d="M1035.55 14.1127L1052.06 13.8805C1046.8 14.1127 1041.02 14.2219 1035.55 14.1127Z" fill="#655D59"/>
<path d="M13.4179 15.2734C13.6303 11.3555 13.8427 7.49212 14.0551 3.72433L14.1359 2.38649L14.2168 0.652753C14.2674 -0.575876 14.3179 -1.8045 14.3685 -3.01948C14.4696 -5.44944 14.5607 -7.83844 14.6618 -10.1728C15.0259 -19.5377 15.3495 -28.1791 15.6428 -35.6464C15.8754 -25.558 15.9259 -17.7767 15.8551 -11.5926C15.8147 -8.50735 15.7541 -5.81803 15.6631 -3.44268C15.6125 -2.255 15.5619 -1.14923 15.5113 -0.0980749C15.481 0.420679 15.4507 0.925783 15.4203 1.41723C15.4001 1.66296 15.39 1.89504 15.3697 2.12711C15.3495 2.27728 15.3395 2.42744 15.3192 2.5776C14.7933 7.35561 14.0146 10.4272 13.4382 15.2734H13.4179Z" fill="#655D59"/>
<path d="M1235.25 42.5352C1234.85 41.7843 1235.72 41.2246 1237.45 40.8151C1239.06 40.9243 1240.71 41.0335 1242.25 41.1291L1235.24 42.5352H1235.25Z" fill="#655D59"/>
<path d="M970.101 16.7621C969.879 16.8166 969.464 16.8439 969.191 16.9121L955.771 16.0937C962.961 15.8482 967.532 16.08 970.111 16.7621H970.101Z" fill="#655D59"/>
<path d="M1234.41 21.2388C1234.6 21.2523 1234.41 21.2794 1234.6 21.293C1233.91 21.2794 1232.8 21.2523 1232.12 21.2388C1232.99 21.2388 1233.58 21.2388 1234.41 21.2388Z" fill="#655D59"/>
<path d="M1100.94 41.1158C1108.03 41.334 1114.66 41.5386 1122.26 41.7841C1113.24 42.0979 1105.69 41.7159 1100.94 41.1158Z" fill="#655D59"/>
<path d="M13.4184 15.2737L13.1352 20.6933L19.0312 21.3076C16.4523 21.294 14.4601 21.1711 12.933 20.98C13.0645 18.7685 13.2263 16.9255 13.4285 15.2737H13.4184Z" fill="#655D59"/>
<path d="M995.789 -1419.55C963.335 -1417.65 929.789 -1421.53 901.522 -1421.73L911.16 -1420.12L882.671 -1421.47L882.995 -1419.15C835.897 -1420.23 777.411 -1417.83 760.168 -1421.51L765.69 -1417.81L715.72 -1420.75L744.331 -1418.25C688.202 -1417.47 602.936 -1420.35 590.941 -1420.34L595.998 -1418.96C586.815 -1418.25 579.574 -1419.16 569.987 -1419.61L577.369 -1417.55C492.791 -1418.11 469.662 -1413.44 375.254 -1415.63C349.526 -1415.14 389.514 -1414.96 389.918 -1413.8C375.861 -1412.16 342.8 -1413.73 335.65 -1414.65C343.124 -1411.41 382.93 -1412.41 352.711 -1409.81C331.241 -1411.41 367.355 -1406.82 329.582 -1407.45L314.776 -1411.6C293.761 -1410.88 310.579 -1408.35 277.357 -1408.76C239.422 -1410.56 323.777 -1413.47 262.692 -1414.07C232.069 -1413.8 198.281 -1404.48 138.935 -1406.7C87.7416 -1404.54 165.867 -1400.24 95.0535 -1401.31L140.392 -1398.59C128.67 -1397.42 136.063 -1395.34 105.379 -1396.22C95.6906 -1397.81 76.6976 -1399.89 60.132 -1400.09C126.476 -1396.95 1.97021 -1395.37 63.7223 -1391.3L40.6942 -1391.45C43.5563 -1391.29 44.2845 -1390.89 42.7675 -1390.58L12.1846 -1390.29C31.046 -1389.39 75.9088 -1389.01 55.0753 -1385.95L10.7688 -1385.19C22.5913 -1382.89 6.35938 -1381.94 8.93823 -1380.08L139.259 -1375.64C134.141 -1377.02 115.381 -1377.92 122.37 -1379.33C157.16 -1380.54 150.778 -1376.83 183.444 -1378.74L169.012 -1380.57C171.612 -1379.88 176.203 -1379.66 169.073 -1379.42C157.615 -1378.24 152.598 -1379.63 152.507 -1380.78C163.966 -1383.11 196.935 -1381.54 206.745 -1379.93C249.07 -1380.23 215.453 -1384.12 224.777 -1384.83C246.673 -1380.93 295.449 -1384.93 321.663 -1383.12L304.825 -1385.65C337.036 -1388.71 365.869 -1386.2 384.74 -1385.3L377.428 -1387.37C422.261 -1386.97 444.5 -1393.96 478.643 -1386.59L473.91 -1387.97C492.306 -1388.61 520.229 -1390.17 537.856 -1387.97C538.261 -1388.83 541.396 -1389.91 548.84 -1390.17C558.801 -1387.33 577.915 -1389.47 605.029 -1389.99C587.038 -1390.73 592.782 -1394.41 573.819 -1395.3C615.648 -1399.07 612.169 -1391.19 647.313 -1391.25C668.389 -1393.13 628.421 -1393.31 623.375 -1394.69C677.633 -1392.68 734.865 -1403.19 769.098 -1395.83L745.807 -1393.49C767.379 -1391.89 779.07 -1391.92 776.451 -1392.6C769.503 -1392.37 767.167 -1393.05 764.709 -1393.75C829.859 -1397.55 866.611 -1388.34 932.388 -1389.83C927.494 -1391.21 918.098 -1391.66 917.694 -1392.82C947.973 -1394.25 947.184 -1385.68 996.082 -1388.53L986.495 -1390.13C1002.78 -1391.08 1014.85 -1388.78 1012.66 -1388.31C1013.94 -1394.56 1116.17 -1388.01 1150.26 -1396.16C1174.23 -1392.72 1242.84 -1390.05 1263.8 -1391.93C1293.87 -1395.68 1237.17 -1396.05 1248.35 -1399.55C1271.9 -1399.57 1284.27 -1396.12 1319.37 -1397.34C1319.95 -1393.87 1250.02 -1390.28 1316.04 -1388.3L1325.28 -1390.17C1318.44 -1389.92 1309.05 -1389.21 1299.47 -1389.66C1280.38 -1391.72 1310.93 -1392 1315.31 -1392.93L1386.18 -1391.88C1391.36 -1388.18 1348.98 -1389.04 1344.6 -1388.11C1358.2 -1388.3 1372.47 -1388.76 1387.03 -1389.31C1394.32 -1389.6 1401.67 -1389.9 1409.04 -1390.2L1411.81 -1390.31L1413.2 -1390.36L1414.06 -1390.41L1417.5 -1390.65C1419.89 -1390.8 1422.29 -1390.93 1424.68 -1391.08C1424.79 -1387.77 1424.89 -1384.45 1425 -1381.15C1425.05 -1379.42 1425.1 -1377.7 1425.14 -1375.98C1425.18 -1373.43 1425.23 -1370.88 1425.27 -1368.33C1425.44 -1357.9 1425.58 -1347.58 1425.65 -1337.45C1425.79 -1317.19 1425.71 -1297.68 1425.24 -1279.55L1426.27 -1286.23C1423.94 -1196.47 1431.29 -1233.83 1426.89 -1162.42C1427.61 -1124.7 1429.8 -1176.02 1430.02 -1119.06C1430.03 -1102.97 1428.99 -1112.4 1428.64 -1115.28C1427.67 -1045.29 1431.24 -1084.47 1428.72 -1019.89L1431.62 -1033.81C1429.63 -956.845 1424.54 -876.165 1425.8 -809.669C1428.03 -813.641 1427.82 -854.787 1429.52 -871.155C1425.48 -781.055 1429.01 -655.039 1426.85 -571.765C1424.94 -596.652 1422.42 -532.34 1420.83 -585.69C1423.74 -599.478 1421.82 -624.501 1422.15 -653.046C1415.83 -606.877 1425.22 -460.042 1419.74 -445.913L1421.98 -433.722C1421.64 -420.944 1419.95 -388.522 1419.25 -410.883L1420.69 -319.009C1422.38 -351.267 1426.27 -419.279 1423.86 -440.63C1426.23 -466.759 1425.43 -402.993 1428.17 -426.132C1424.43 -364.646 1429.74 -388.345 1428.93 -324.674C1425.69 -353.479 1424.54 -261.332 1422.98 -264.199C1423.57 -243.367 1422.08 -197.061 1420.97 -179.15C1420.67 -142.332 1423.28 -57.8709 1422.16 1.22612C1423.17 -21.1349 1424.51 -56.5331 1426.58 -53.9257C1425.99 -39.4415 1425.71 -24.2475 1425.87 -11.9748C1425.91 -8.90325 1425.98 -6.0228 1426.07 -3.38807C1426.13 -2.06388 1426.19 -0.807945 1426.24 0.393379C1426.27 0.980392 1426.31 1.5674 1426.34 2.11346C1426.39 2.523 1426.43 2.93254 1426.46 3.31478C1426.78 6.44096 1427.23 8.96647 1427.83 10.4272C1427.96 7.81976 1428.08 5.34885 1428.21 3.01445C1428.31 0.188602 1428.41 -2.47342 1428.5 -4.99894C1428.67 -10.1592 1428.79 -14.7324 1428.86 -18.8005C1429.01 -26.9231 1429 -32.998 1428.86 -37.6941C1428.6 -47.0726 1427.86 -50.9224 1427.07 -54.4581C1425.51 -61.5295 1423.74 -67.3723 1425.15 -113.937C1427.88 -136.94 1428.55 -162.468 1429.36 -210.426C1430.93 -188.57 1431.6 -198.194 1433.51 -189.211C1430.78 -161.608 1430.5 -126.21 1430.66 -88.4638C1430.77 -69.5975 1430.89 -50.1306 1431 -30.7728C1431.06 -11.5107 1430.98 8.2566 1430.52 25.4438C1427.04 25.2799 1423.65 25.0888 1420.39 24.8704C1417.49 24.5837 1415.29 24.2561 1413.57 23.9011C1411.75 23.5462 1410.21 23.164 1408.97 22.7681C1406.44 21.9763 1404.75 21.1162 1402.11 20.3108C1396.83 18.6999 1387.77 17.2529 1360.62 16.8297L1407.26 14.4543C1355.97 16.6113 1395.22 12.1609 1352.84 11.2872L1369.69 13.8127C1343.78 14.3042 1334.27 13.8673 1319.9 12.0244L1341.84 15.9287C1327.86 16.4202 1302.01 16.9116 1301.66 14.6045C1298.07 15.5601 1296.8 16.3109 1296.8 16.9799C1294.08 16.3246 1287.48 15.9151 1271.11 16.0379C1280.69 16.4884 1287.62 16.2427 1287.82 17.4031C1225.45 16.4748 1273.24 21.635 1234.6 21.2664C1240.71 22.1674 1229.72 23.3005 1215.88 23.7783C1216.81 17.6215 1140.23 16.816 1119.98 13.4032L1120.22 13.4988L1068.05 11.0278C1078.63 11.5329 1067.22 13.2121 1052.05 13.8537L1054.51 13.8264C1037.93 14.782 1074.22 20.5156 1024.49 18.7409L998.358 16.9253C1003.03 17.1437 998.54 18.0856 996.082 18.5498L969.171 16.8843C928.009 22.6316 891.47 13.6489 843.037 16.4611C857.014 15.9697 878.292 16.4065 869.17 18.2768C859.785 18.9866 845.616 18.3041 838.324 17.3894L840.761 18.072L748.477 14.2769C755.971 16.3519 807.61 16.5021 784.531 18.8501C770.878 21.6623 744.401 18.6863 727.826 18.4679C729.96 16.8433 760.502 15.4099 729.626 14.5363C725.853 15.3417 696.484 17.0208 710.34 18.1812C678.725 16.5157 632.811 15.5192 604.514 12.6387C595.543 13.3486 609.651 14.0175 614.364 14.2496L616.639 13.7854C635.683 14.6864 619.572 17.9491 656.971 16.27C660.096 21.6077 603.057 17.7443 570.26 18.4952L622.556 22.1265C534.458 29.4436 415.535 21.5258 328.257 21.4166C353.864 19.7511 375.284 21.3347 372.23 17.171C318.002 15.1642 325.112 16.0789 271.036 15.2325L275.688 15.4509C247.725 17.5805 209.526 13.4714 191.191 17.2119C203.266 19.5054 230.886 15.055 231.553 19.6965L163.319 19.3416C184.759 22.0855 231.553 19.6965 257.565 20.3518C276.335 20.0924 219.832 19.7102 228.752 16.6795C292.436 16.8297 306.959 19.8057 338.29 24.1605C357.384 27.3823 310.468 27.4369 298.625 27.4642C258.091 22.6589 198.877 20.4337 135.699 22.6043L101.01 26.1263C85.375 24.5291 80.8745 22.1538 73.2389 20.2835C69.416 19.3416 64.8043 18.5361 57.6239 18.0037C54.0337 17.7443 49.7963 17.5532 44.689 17.444C42.1404 17.3894 39.3693 17.3621 36.3555 17.3621C33.3822 17.3894 30.1661 17.4031 26.6771 17.4304L43.4147 19.9559C37.2252 20.4473 32.1079 20.775 27.7794 20.9797C25.9995 21.0616 24.3916 21.1299 22.915 21.1982C21.489 21.2391 20.1844 21.2528 19.0011 21.2528C21.3979 21.4985 23.8149 21.7306 26.2523 21.9763C29.2863 22.222 32.3407 22.4677 35.405 22.7135C41.6146 23.2186 47.8444 23.7373 54.0135 24.2424C66.3315 25.3072 78.3562 26.3447 89.3394 27.3003C79.58 28.9249 67.2417 29.3208 53.4573 29.0614C46.5599 28.9249 39.3086 28.6245 31.845 28.2286C28.002 28.0102 24.0981 27.7918 20.1641 27.5734C16.3209 27.3277 12.4475 27.0819 8.55396 26.8225C9.03931 13.1302 9.5249 -0.739689 10.0103 -14.3502C10.4452 -27.7968 10.8092 -40.9841 10.9609 -53.4888C10.4553 -50.1715 10.3036 -27.8924 9.2821 -21.2578C8.34155 -116.381 13.0646 -215.995 13.6917 -289.467C11.9521 -320.524 12.5386 -228.446 9.95972 -243.585C10.9508 -282.205 8.68542 -325.835 11.0823 -336.183C7.66406 -319.296 10.8293 -424.944 7.63354 -351.063C6.14697 -490.294 9.2821 -643.558 11.2239 -784.236C10.1924 -777.41 9.34265 -777.411 8.6449 -783.322C8.6853 -735.705 7.7146 -665.755 5.32788 -639.326C3.57825 -670.602 7.66382 -713.344 6.63232 -722.341C5.79285 -706.369 5.81311 -674.643 4.09387 -674.096C2.16223 -714.86 4.89307 -737.698 5.21667 -766.394L6.08643 -750.831C8.41248 -840.275 12.0532 -800.195 11.1127 -895.181C9.0293 -929.583 9.40356 -894.854 6.82458 -894.267C7.83594 -916.641 5.03455 -988.762 7.76514 -1012.04L7.98767 -954.552C8.71582 -994.796 8.70569 -1032.84 9.5957 -1060.72C9.03943 -1057.84 8.47314 -1055.5 8.25061 -1046.97C9.07996 -1078.94 8.86755 -1119.98 10.5868 -1136.33L7.82581 -1145.33C9.04956 -1126.26 9.26184 -1069.24 7.72461 -1059.61C5.30762 -1065.09 6.81445 -1122.76 6.62231 -1148.02C5.85364 -1036.64 1.56567 -1035.27 3.35571 -940.968L4.2052 -956.872C6.28857 -898.212 2.8501 -837.763 2.93103 -786.366C2.36462 -800.836 1.3634 -803.771 0.898193 -796.973C3.05237 -683.27 1.42395 -571.424 2.72864 -441.817L0.00817871 -402.815L2.07117 -400.399C2.98145 -336.988 -0.841431 -386.666 -0.63916 -345.793C-0.63916 -361.329 -0.305298 -358.544 0.210449 -361.711C-2.13586 -288.116 2.13196 -320.825 1.47449 -279.529C3.68933 -299.16 2.26355 -359.131 5.19641 -340.715C2.8501 -267.284 4.15466 -153.103 -0.821167 -142.332C-0.436768 -115.835 -0.234497 -88.1088 -0.173828 -59.7821C-0.173828 -45.6256 -0.173828 -31.3052 -0.173828 -16.9303C-0.224487 1.59471 -0.285156 20.2016 -0.335693 38.8085C11.1632 38.9041 22.652 38.9996 34.1003 39.0952C42.4741 39.218 50.8075 39.3409 59.0903 39.4501C75.6459 39.7231 91.9385 40.0098 107.766 40.2692C139.401 40.8289 169.124 41.334 195.075 41.5115C206.654 40.3375 187.844 40.5832 192.293 39.6549C225.859 43.5456 304.936 36.9383 305.472 40.4194C321.714 39.4638 328.5 36.911 332.909 35.9827C354.451 37.6481 380.25 38.4672 407.627 38.945L387.602 37.9894L389.787 37.5253L418.205 38.8768L417.154 39.0952C485.287 40.0917 564.02 39.2453 625.832 42.9722C590.233 40.7061 634.793 38.7812 617.974 37.4161C649.397 42.9312 724.711 43.0541 785.795 42.4944C785.532 41.334 790.266 40.4057 783.095 39.4911L818.512 41.7572L813.819 40.3648C877.24 39.3409 946.304 45.4977 988.184 42.8766C962.294 42.2214 962.152 41.061 959.553 39.2044C1004.99 39.3409 1047.85 39.4092 1100.94 41.0746C1098.1 40.7334 1096.24 40.3511 1096.16 39.9279C1110.07 39.4501 1126.79 40.8153 1141.03 41.4842L1142.96 38.7129C1170.11 39.9962 1205.18 38.5628 1237.45 40.788C1250.1 37.73 1315.62 43.6138 1352.89 42.3306C1367.15 42.9995 1321.82 39.1361 1361.81 39.3C1364.64 42.3169 1377.62 42.3442 1390.28 42.4398C1396.61 42.4944 1402.86 42.549 1407.73 42.9995C1408.94 43.1087 1410.07 43.2589 1411.09 43.4227C1411.61 43.5046 1412.08 43.6002 1412.54 43.6957C1412.76 43.7503 1412.99 43.8049 1413.2 43.8595C1413.56 43.9141 1413.92 43.9687 1414.26 44.0233C1416.99 44.5011 1418.95 45.1155 1419.79 45.9209L1444.98 45.0063L1444.47 20.106L1444.2 7.95627L1444.07 2.0179L1443.94 -1.46321L1446.34 -11.8793C1441.84 -51.9735 1448.35 -72.9421 1446.93 -132.599C1446.41 -129.445 1446.24 -123.057 1445.89 -126.114C1446.39 -145.39 1446.7 -189.853 1447.93 -155.397C1447.91 -187.191 1449.02 -295.392 1446.48 -246.834C1447.86 -250.342 1446.68 -205.88 1446.19 -186.645C1444.12 -189.17 1444.94 -236.95 1442.7 -248.813C1442.92 -250.356 1443.27 -256.649 1443.62 -261.209L1442.34 -268.021C1444.61 -327.76 1442.98 -388.481 1445.9 -431.947C1445.27 -434.473 1444.77 -444.944 1444.92 -465.475L1447.5 -466.349L1447.45 -529.869L1443.7 -500.123C1442.95 -569.827 1447.21 -618.876 1447.85 -676.117C1443.55 -690.833 1449.47 -787.84 1445.65 -837.436L1444.49 -792.7C1445.27 -888.287 1442.68 -903.495 1444.15 -992.653C1445.59 -917.024 1444.73 -916.587 1448.25 -806.433C1446.45 -917.024 1450.68 -997.499 1448.18 -1098.75C1447.16 -1091.98 1446.5 -1066.58 1445.44 -1091.35C1447.65 -1111.12 1445.36 -1186.75 1447.95 -1171.76C1447.07 -1203.2 1444.65 -1208.67 1444.3 -1227.89L1447.47 -1333.42L1446.96 -1330.18C1446.56 -1341.99 1446.24 -1353.69 1445.97 -1365.3C1445.91 -1368.2 1445.85 -1371.1 1445.79 -1373.99L1445.71 -1380.53C1445.68 -1383.12 1445.66 -1385.73 1445.63 -1388.33C1445.54 -1398.61 1445.46 -1408.83 1445.37 -1419.04C1433.62 -1418.92 1421.93 -1418.8 1410.29 -1418.69C1403.37 -1418.65 1396.48 -1418.62 1389.61 -1418.58C1375.89 -1418.58 1362.27 -1418.74 1348.7 -1418.99C1321.58 -1419.48 1294.71 -1420.37 1267.72 -1421.24C1213.72 -1422.97 1159.25 -1424.68 1101.34 -1423.18L1103.92 -1421.32L1070.54 -1424.05C1096.7 -1422.24 1059.21 -1421.72 1057.16 -1420.09L971.719 -1424.13C969.798 -1422.51 974.834 -1418.81 995.789 -1419.53V-1419.55ZM1444.59 -468.902L1444.41 -441.599C1444.54 -436.125 1444.57 -430.473 1444.3 -424.275L1444.41 -441.599C1444.06 -455.633 1442.98 -465.939 1444.59 -468.902ZM0.473389 -75.6041C1.66675 -88.7368 0.837524 -56.656 1.0094 -47.5095L1.32288 -91.9722C0.635132 -98.1426 0.645264 -82.0749 0.473389 -75.6041ZM1427.94 -467.305L1426.21 -482.54L1427.57 -502.034L1427.94 -467.305ZM1427.79 -854.773L1426.79 -816.153L1426.45 -819.389L1427.45 -857.613L1427.79 -854.787V-854.773ZM1441.69 -1285.23C1441.59 -1282.79 1441.51 -1280.53 1441.34 -1277.78C1441.41 -1280.21 1441.54 -1282.79 1441.69 -1285.23C1442.93 -1315.06 1439.84 -1326.92 1442.84 -1351.18C1445.41 -1321.41 1442.75 -1302.27 1441.69 -1285.23ZM1441.73 -604.529C1441.39 -591.587 1441.23 -585.226 1441.4 -575.793C1442.42 -582.509 1443.95 -608.447 1444.31 -589.444C1443.11 -576.229 1442.81 -531.931 1441.1 -531.303C1442.95 -569.841 1438.13 -597.089 1441.73 -604.515V-604.529ZM1222.86 39.0815L1230.05 38.8358L1203.72 37.0202L1222.86 39.0815ZM1100.18 36.7198C1085.59 33.7302 1048.05 34.2489 1022.09 33.5937C1015.37 36.1601 1041.73 39.1225 1072.28 38.8495C1108.02 41.1156 1085.78 34.8905 1100.18 36.7198ZM1438.39 -902.062L1436.86 -892.246L1436.68 -901.488L1435.69 -863.21C1433.59 -913.515 1437.51 -949.446 1438.17 -975.138C1438.01 -952.681 1434.28 -891.332 1438.4 -902.048L1438.39 -902.062ZM838.638 35.2591C812.484 33.4435 765.316 31.2047 769.644 29.1023C767.976 33.0476 805.85 34.8496 817.632 34.8223C824.469 34.5902 829.414 34.8086 838.648 35.2591H838.638ZM840.043 27.8464C877.979 29.6484 880.578 31.4913 909.532 35.1636C871.981 36.829 861.726 31.7644 866.196 29.662C840.043 27.8464 845.1 30.3992 831.123 30.877L840.043 27.8464ZM879.435 38.9041L894.888 38.358C913.163 36.7198 916.966 32.2558 942.593 36.7198L894.888 38.358C890.802 38.7402 885.746 38.9723 879.435 38.9041ZM560.48 38.6993L576.065 40.0508C560.692 39.9143 558.902 39.3273 560.48 38.6993L547.505 37.5526C581.313 36.1328 563.918 37.498 560.48 38.6993ZM803.736 37.6345L848.559 38.0304C845.98 36.1738 818.016 37.143 803.736 37.6345ZM570.482 35.2045C589.364 34.9451 638.616 34.3991 631.769 34.6585C627.299 36.7471 582.456 36.3512 570.482 35.2045ZM6.44031 -550.742L6.29871 -512.614L4.22546 -531.043L6.44031 -550.742ZM8.00781 -103.371L6.97632 -112.804L7.12793 -134.974L8.00781 -103.371ZM218.386 27.4232C216.919 28.0239 217.708 28.7884 220.247 29.43C224.899 29.6757 228.964 30.0306 230.886 30.6176C226.709 30.6176 222.714 30.1125 220.247 29.43C208 28.802 189.765 29.1433 181.462 30.0033C186.377 31.3821 205.239 31.1227 212.53 32.0374C184.587 35.3274 121.823 25.4438 139.734 34.9315C127.901 33.7984 87.418 31.3002 101.415 29.662C133.424 30.2081 194.104 29.1842 218.396 27.4369C219.812 26.9318 222.471 26.5359 227.973 26.4676C226.365 26.8225 222.714 27.1365 218.396 27.4369L218.386 27.4232ZM630.222 25.3755C641.771 25.6076 646.787 25.8943 649.073 26.2082C659.004 26.9045 666.559 27.9693 663.626 29.2662C639.485 28.1194 654.918 27.0546 649.073 26.2082C643.005 25.785 636.462 25.4574 630.222 25.3755ZM703.028 24.8021L665.234 23.0138L684.278 25.0615L627.299 21.2118C659.985 19.3143 697.971 22.263 703.028 24.8021ZM716.327 22.9865L724.124 25.2526L712.2 22.9455L716.327 23.0001L714.537 22.4814L778.22 23.7783L716.327 23.0001V22.9865ZM1367.02 27.5188C1390.89 19.7102 1310.71 21.9763 1298.26 18.2085C1295.6 20.8159 1271.45 24.884 1333.66 24.7885C1279.9 27.4096 1299.99 19.7375 1267.99 26.2765C1293.74 25.785 1324.75 27.8191 1329.34 28.0375L1299 28.3106C1316.17 33.1432 1345.7 25.9216 1367.02 27.5188ZM1431.14 -328.401L1431.27 -382.297L1430.79 -331.282L1431.14 -328.401ZM1239.26 -1397.66C1242.08 -1395.82 1190.68 -1392.49 1178.46 -1395.96C1204.35 -1396.46 1232.64 -1396.27 1239.26 -1397.66ZM815.741 -1398.2L860.604 -1396.64C851.957 -1392.45 820.535 -1396.82 799.499 -1396.08C792.187 -1398.15 808.753 -1396.79 815.741 -1398.18V-1398.2ZM523.88 -1398.21L509.61 -1398.88L524.618 -1394.73L523.89 -1398.2L523.88 -1398.21ZM543.52 -1392.68C534.519 -1390.81 565.173 -1389.94 572.404 -1390.17L543.52 -1392.68ZM280.593 -1389.05L299.303 -1389.31L282.383 -1392.99L280.593 -1389.05ZM310.387 -1393.36C314.786 -1390.71 312.925 -1387.15 355.998 -1388.93C357.788 -1391.71 346.067 -1391.68 362.056 -1394.96C347.877 -1395.63 336.257 -1394.46 329.177 -1394.22C338.826 -1393.77 350.244 -1394.95 352.873 -1393.1C336.823 -1392.05 320.318 -1392.39 310.397 -1393.38C308.89 -1394.32 306.493 -1395.15 300.83 -1395.57C300.971 -1394.73 304.622 -1393.95 310.397 -1393.38L310.387 -1393.36ZM466.426 -1396.28C472.12 -1396.61 477.035 -1396.98 479.29 -1397.46L481.889 -1396.76C476.044 -1395.56 470.987 -1395.83 466.436 -1396.3C460.206 -1395.93 452.955 -1395.62 445.481 -1395.32C440.708 -1392.97 470.198 -1391.37 477.975 -1390.06C463.938 -1390.73 451.802 -1393.02 433.203 -1391.62C435.661 -1390.92 433.325 -1390.46 445.036 -1390.48L419.348 -1389.96C389.949 -1393.23 418.023 -1394.25 445.481 -1395.32C446.351 -1395.83 448.424 -1396.37 453.622 -1396.97C458.001 -1397.31 462.067 -1396.72 466.436 -1396.3L466.426 -1396.28ZM259.962 -1401.53L274.04 -1400.86C281.271 -1399.94 276.679 -1399.01 279.197 -1398.32C262.703 -1398.52 241.171 -1400.12 259.962 -1401.53ZM1104.62 -1402.33C1095.27 -1401.62 1116.87 -1398.86 1137.86 -1399.6L1126.69 -1396.12C1126.15 -1398.43 1083.98 -1398.14 1079.24 -1398.37C1071.79 -1401.59 1088.21 -1400.23 1104.61 -1402.35L1104.62 -1402.33ZM1433.05 -516.163C1429.79 -505.815 1431.75 -433.285 1430.9 -417.259C1430.18 -454.977 1429.42 -540.749 1433.05 -516.163ZM1434.37 -390.379C1434.33 -370.543 1434.64 -364.892 1433.01 -366.939C1432.33 -357.315 1433.2 -341.602 1432.52 -331.91C1431.09 -370.53 1433.69 -368.113 1434.37 -390.379C1434.38 -395.566 1434.42 -401.423 1434.52 -408.808C1434.62 -400.809 1434.52 -395.239 1434.37 -390.379ZM1434.58 -1164.59L1436.96 -1190.97L1436.75 -1232.17L1434.58 -1164.59ZM1277.44 -1410.24C1279.94 -1408.38 1244.89 -1408.34 1237.59 -1409.25C1239.82 -1406.82 1263.33 -1407.14 1282.03 -1406.88C1284.42 -1406.67 1288.34 -1406.55 1294.34 -1406.56C1290.67 -1406.74 1286.62 -1406.82 1282.03 -1406.88C1275.02 -1407.45 1279.89 -1408.69 1279.89 -1409.55L1289.2 -1410.26L1263.33 -1410.92L1277.44 -1410.24ZM700.55 -1412.86C679.615 -1410.96 677.117 -1411.66 663.029 -1412.32C667.55 -1413.27 686.32 -1413.53 700.55 -1412.86ZM1440.41 -1372.69C1440.34 -1376.6 1440.28 -1379.89 1440.23 -1382.65C1440.17 -1385.8 1440.1 -1388.31 1440.03 -1390.29C1439.89 -1394.24 1439.74 -1396 1439.58 -1396.3C1439.27 -1396.89 1438.94 -1391.7 1438.59 -1386.09C1438.42 -1383.33 1438.24 -1380.38 1438.09 -1377.87C1438.01 -1376.65 1437.92 -1375.43 1437.84 -1374.88C1437.76 -1374.2 1437.68 -1373.65 1437.61 -1373.28C1437.46 -1372.54 1437.31 -1372.54 1437.18 -1373.69C1437.15 -1373.98 1437.11 -1374.35 1437.08 -1374.78C1437.06 -1375 1437.04 -1375.25 1437.02 -1375.51C1437.01 -1375.83 1436.99 -1376.2 1436.97 -1376.59C1436.91 -1378.18 1436.85 -1380.23 1436.8 -1382.77L1436.99 -1356.12C1436.62 -1364.08 1436.47 -1370.03 1436.47 -1374.66C1436.47 -1376.07 1436.49 -1377.36 1436.5 -1378.58C1436.53 -1379.89 1436.55 -1381.1 1436.57 -1382.25C1436.63 -1384.54 1436.72 -1386.55 1436.83 -1388.39C1437.27 -1395.75 1437.98 -1400.46 1438.33 -1409.55C1435.14 -1409.81 1430.71 -1409.94 1424.31 -1409.77L1438.74 -1410.11L1438.84 -1402.48C1439.21 -1398.29 1439.48 -1397.68 1439.68 -1399.67C1439.89 -1401.65 1440.03 -1406.2 1440.14 -1412.01C1434.76 -1412.19 1427.8 -1412.42 1421.9 -1412.63C1418.91 -1412.75 1416.17 -1412.88 1414.01 -1413.06C1413.73 -1413.09 1413.47 -1413.1 1413.23 -1413.13C1413.07 -1413.16 1412.9 -1413.18 1412.75 -1413.2C1412.46 -1413.25 1412.19 -1413.29 1411.95 -1413.35C1411.48 -1413.46 1411.13 -1413.58 1410.94 -1413.7C1411.61 -1413.73 1412.31 -1413.77 1413.05 -1413.81C1414.17 -1413.84 1415.34 -1413.87 1416.56 -1413.89C1419.04 -1413.92 1421.69 -1413.95 1424.44 -1413.98C1429.95 -1414 1435.83 -1413.98 1441.56 -1413.91C1441.5 -1405.66 1441.42 -1397.58 1441.32 -1390.47C1441.26 -1386.92 1441.21 -1383.6 1441.17 -1380.6C1441.14 -1379.11 1441.11 -1377.69 1441.09 -1376.37C1441.08 -1375.85 1441.06 -1375.36 1441.05 -1374.88C1441.04 -1374.48 1441.02 -1374.1 1441.01 -1373.75C1440.78 -1367.94 1440.54 -1366.32 1440.42 -1372.72L1440.41 -1372.69ZM667.419 -1414.41C632.487 -1412.04 638.666 -1416.93 617.499 -1417.35C645.321 -1419.48 641.255 -1415.07 667.419 -1414.41ZM1229.02 -1419.44L1231.24 -1419.89L1202.89 -1421.24L1200.63 -1420.78L1229.02 -1419.44Z" fill="#655D59"/>
<path d="M301.356 13.8262C296.502 13.5941 284.841 13.6214 284.517 12.461L319.853 12.4064C334.032 13.089 308.425 13.5804 301.356 13.8262Z" fill="#655D59"/>
<path d="M431.655 19.4236C459.881 19.6147 445.176 16.6251 459.477 17.294L457.869 21.2393L431.655 19.4236Z" fill="#655D59"/>
<path d="M415.961 39.3818L407.637 38.9863C410.762 39.0272 413.837 39.0817 417.164 39.1227L415.971 39.3682L415.961 39.3818Z" fill="#655D59"/>
<path d="M567.549 15.5058L548.031 11.1237C571.726 12.2431 572.05 15.7242 567.549 15.5058Z" fill="#655D59"/>
<path d="M675.205 12.5576L658.639 11.2061L710.48 12.5167L675.205 12.5576Z" fill="#655D59"/>
<path d="M804.98 14.6869L809.561 13.7594L845.1 14.8643L804.98 14.6869Z" fill="#655D59"/>
</g>
<defs>
<clipPath id="clip0_116_2641">
<rect width="1443" height="63" fill="white" transform="matrix(-1 0 0 -1 1443 63)"/>
</clipPath>
</defs>
</svg>
