<svg width="1443" height="63" viewBox="0 0 1443 63" fill="none" xmlns="http://www.w3.org/2000/svg">
<g clip-path="url(#clip0_125_2887)">
<rect width="1443" height="63" fill="#A47968"/>
<path d="M1434.07 36.6279H11.8301V1462.89H1434.07V36.6279Z" fill="#655D59"/>
<path d="M323.01 49.5703C327.176 50.2665 329.755 51.0447 327.783 52.0276L323.01 49.5703Z" fill="#655D59"/>
<path d="M230.046 42.1976C221.692 41.9387 215.867 41.8296 210.871 41.7478C216.595 41.6252 221.389 41.7887 230.046 42.1976Z" fill="#655D59"/>
<path d="M407.455 48.8873L390.939 49.1195C396.198 48.8873 401.983 48.7781 407.455 48.8873Z" fill="#655D59"/>
<path d="M1429.58 47.7266C1429.37 51.6445 1429.16 55.5079 1428.94 59.2757L1428.86 60.6135L1428.78 62.3472C1428.73 63.5759 1428.68 64.8045 1428.63 66.0195C1428.53 68.4494 1428.44 70.8384 1428.34 73.1728C1427.97 82.5377 1427.65 91.1791 1427.36 98.6464C1427.12 88.558 1427.07 80.7767 1427.14 74.5926C1427.19 71.5074 1427.25 68.818 1427.34 66.4427C1427.39 65.255 1427.44 64.1492 1427.49 63.0981C1427.52 62.5793 1427.55 62.0742 1427.58 61.5828C1427.6 61.337 1427.61 61.105 1427.63 60.8729C1427.65 60.7227 1427.66 60.5726 1427.68 60.4224C1428.21 55.6444 1428.99 52.5728 1429.56 47.7266H1429.58Z" fill="#655D59"/>
<path d="M207.746 20.4648C208.151 21.2157 207.281 21.7754 205.552 22.1849C203.944 22.0757 202.285 21.9665 200.748 21.8709L207.757 20.4648H207.746Z" fill="#655D59"/>
<path d="M472.899 46.2379C473.121 46.1834 473.536 46.1561 473.809 46.0879L487.229 46.9063C480.039 47.1518 475.468 46.92 472.889 46.2379H472.899Z" fill="#655D59"/>
<path d="M208.586 41.7612C208.404 41.7477 208.586 41.7206 208.404 41.707C209.092 41.7206 210.204 41.7477 210.882 41.7612C210.012 41.7612 209.416 41.7612 208.586 41.7612Z" fill="#655D59"/>
<path d="M342.061 21.8842C334.972 21.666 328.337 21.4614 320.742 21.2159C329.763 20.9021 337.308 21.2841 342.061 21.8842Z" fill="#655D59"/>
<path d="M1429.58 47.7263L1429.86 42.3067L1423.97 41.6924C1426.55 41.706 1428.54 41.8289 1430.07 42.02C1429.94 44.2315 1429.77 46.0745 1429.57 47.7263H1429.58Z" fill="#655D59"/>
<path d="M447.211 1482.55C479.665 1480.65 513.211 1484.53 541.478 1484.73L531.84 1483.12L560.329 1484.47L560.005 1482.15C607.103 1483.23 665.589 1480.83 682.832 1484.51L677.31 1480.81L727.28 1483.75L698.669 1481.25C754.798 1480.47 840.064 1483.35 852.059 1483.34L847.002 1481.96C856.185 1481.25 863.426 1482.16 873.013 1482.61L865.631 1480.55C950.209 1481.11 973.338 1476.44 1067.75 1478.63C1093.47 1478.14 1053.49 1477.96 1053.08 1476.8C1067.14 1475.16 1100.2 1476.73 1107.35 1477.65C1099.88 1474.41 1060.07 1475.41 1090.29 1472.81C1111.76 1474.41 1075.64 1469.82 1113.42 1470.45L1128.22 1474.6C1149.24 1473.88 1132.42 1471.35 1165.64 1471.76C1203.58 1473.56 1119.22 1476.47 1180.31 1477.07C1210.93 1476.8 1244.72 1467.48 1304.06 1469.7C1355.26 1467.54 1277.13 1463.24 1347.95 1464.31L1302.61 1461.59C1314.33 1460.42 1306.94 1458.34 1337.62 1459.22C1347.31 1460.81 1366.3 1462.89 1382.87 1463.09C1316.52 1459.95 1441.03 1458.37 1379.28 1454.3L1402.31 1454.45C1399.44 1454.29 1398.72 1453.89 1400.23 1453.58L1430.82 1453.29C1411.95 1452.39 1367.09 1452.01 1387.92 1448.95L1432.23 1448.19C1420.41 1445.89 1436.64 1444.94 1434.06 1443.08L1303.74 1438.64C1308.86 1440.02 1327.62 1440.92 1320.63 1442.33C1285.84 1443.54 1292.22 1439.83 1259.56 1441.74L1273.99 1443.57C1271.39 1442.88 1266.8 1442.66 1273.93 1442.42C1285.39 1441.24 1290.4 1442.63 1290.49 1443.78C1279.03 1446.11 1246.06 1444.54 1236.25 1442.93C1193.93 1443.23 1227.55 1447.12 1218.22 1447.83C1196.33 1443.93 1147.55 1447.93 1121.34 1446.12L1138.18 1448.65C1105.96 1451.71 1077.13 1449.2 1058.26 1448.3L1065.57 1450.37C1020.74 1449.97 998.5 1456.96 964.357 1449.59L969.09 1450.97C950.694 1451.61 922.771 1453.17 905.144 1450.97C904.739 1451.83 901.604 1452.91 894.16 1453.17C884.199 1450.33 865.085 1452.47 837.971 1452.99C855.962 1453.73 850.218 1457.41 869.181 1458.3C827.352 1462.07 830.831 1454.19 795.687 1454.25C774.611 1456.13 814.579 1456.31 819.625 1457.69C765.367 1455.68 708.135 1466.19 673.902 1458.83L697.193 1456.49C675.621 1454.89 663.93 1454.92 666.549 1455.6C673.497 1455.37 675.833 1456.05 678.291 1456.75C613.141 1460.55 576.389 1451.34 510.612 1452.83C515.506 1454.21 524.902 1454.66 525.306 1455.82C495.027 1457.25 495.816 1448.68 446.918 1451.53L456.505 1453.13C440.223 1454.08 428.147 1451.78 430.342 1451.31C429.058 1457.56 326.832 1451.01 292.74 1459.16C268.771 1455.72 200.162 1453.05 179.197 1454.93C149.13 1458.68 205.826 1459.05 194.65 1462.55C171.096 1462.57 158.728 1459.12 123.634 1460.34C123.048 1456.87 192.982 1453.28 126.962 1451.3L117.718 1453.17C124.565 1452.92 133.95 1452.21 143.527 1452.66C162.621 1454.72 132.069 1455 127.69 1455.93L56.8154 1454.88C51.6373 1451.18 94.0224 1452.04 98.4015 1451.11C84.799 1451.3 70.5291 1451.76 55.9659 1452.31C48.6842 1452.6 41.3318 1452.9 33.9592 1453.2L31.1881 1453.31L29.8026 1453.36L28.943 1453.41L25.5044 1453.65C23.1076 1453.8 20.7107 1453.93 18.324 1454.08C18.2127 1450.77 18.1116 1447.45 18.0003 1444.15C17.9498 1442.42 17.8992 1440.7 17.8587 1438.98C17.8183 1436.43 17.7677 1433.88 17.7273 1431.33C17.5553 1420.9 17.4239 1410.58 17.3531 1400.45C17.2115 1380.19 17.2924 1360.68 17.7576 1342.55L16.726 1349.23C19.0622 1259.47 11.7098 1296.83 16.1091 1225.42C15.3911 1187.7 13.1965 1239.02 12.9841 1182.06C12.974 1165.97 14.0056 1175.4 14.3595 1178.28C15.3304 1108.29 11.7604 1147.47 14.2786 1082.89L11.3761 1096.81C13.3684 1019.84 18.4554 939.165 17.2014 872.669C14.9663 876.641 15.1787 917.787 13.4797 934.155C17.525 844.055 13.9853 718.039 16.1496 634.765C18.061 659.652 20.5792 595.34 22.167 648.69C19.2645 662.478 21.1759 687.501 20.8523 716.046C27.1731 669.877 17.7778 523.042 23.2593 508.913L21.0242 496.722C21.358 483.944 23.0469 451.522 23.7548 473.883L22.3086 382.009C20.6197 414.267 16.726 482.279 19.1431 503.63C16.7665 529.759 17.5655 465.993 14.8348 489.132C18.5667 427.646 13.2572 451.345 14.0662 387.674C17.3126 416.479 18.4554 324.332 20.023 327.199C19.4263 306.367 20.9231 260.061 22.0254 242.15C22.3288 205.332 19.7196 120.871 20.8422 61.7739C19.8308 84.1349 18.4858 119.533 16.4226 116.926C17.0092 102.441 17.2924 87.2475 17.1306 74.9748C17.0901 71.9032 17.0193 69.0228 16.9283 66.3881C16.8676 65.0639 16.807 63.8079 16.7564 62.6066C16.726 62.0196 16.6856 61.4326 16.6553 60.8865C16.6148 60.477 16.5743 60.0675 16.544 59.6852C16.2204 56.559 15.7653 54.0335 15.1686 52.5728C15.0371 55.1802 14.9158 57.6512 14.7944 59.9855C14.6933 62.8114 14.5921 65.4734 14.5011 67.9989C14.3292 73.1592 14.2078 77.7324 14.137 81.8005C13.9853 89.9231 13.9954 95.998 14.137 100.694C14.4 110.073 15.1382 113.922 15.9271 117.458C17.4947 124.53 19.2645 130.372 17.8486 176.937C15.118 199.94 14.4505 225.468 13.6415 273.426C12.0739 251.57 11.3963 261.194 9.495 252.211C12.2155 224.608 12.4987 189.21 12.3369 151.464C12.2256 132.598 12.1144 113.131 12.0031 93.7728C11.9424 74.5107 12.0233 54.7434 12.4784 37.5562C15.9574 37.7201 19.3454 37.9112 22.612 38.1296C25.5145 38.4163 27.7091 38.7439 29.4284 39.0989C31.2488 39.4538 32.7861 39.836 34.03 40.2319C36.5583 41.0237 38.2473 41.8838 40.8868 42.6892C46.166 44.3001 55.2276 45.7471 82.3819 46.1703L35.7392 48.5457C87.0341 46.3887 47.7842 50.8391 90.1591 51.7128L73.3103 49.1873C99.2207 48.6958 108.727 49.1327 123.098 50.9756L101.162 47.0713C115.139 46.5798 140.989 46.0884 141.343 48.3955C144.933 47.4399 146.197 46.6891 146.197 46.0201C148.918 46.6754 155.522 47.0849 171.885 46.9621C162.308 46.5116 155.38 46.7573 155.178 45.5969C217.547 46.5252 169.761 41.365 208.404 41.7336C202.286 40.8326 213.279 39.6995 227.124 39.2217C226.194 45.3785 302.772 46.184 323.019 49.5968L322.776 49.5012L374.951 51.9722C364.372 51.4671 375.78 49.7879 390.95 49.1463L388.493 49.1736C405.069 48.218 368.782 42.4844 418.509 44.2591L444.642 46.0747C439.97 45.8563 444.46 44.9144 446.918 44.4502L473.829 46.1157C514.991 40.3684 551.53 49.3511 599.963 46.5389C585.986 47.0303 564.708 46.5935 573.83 44.7232C583.215 44.0134 597.384 44.6959 604.676 45.6106L602.239 44.928L694.523 48.7231C687.029 46.6481 635.39 46.4979 658.469 44.1499C672.122 41.3377 698.599 44.3137 715.174 44.5321C713.04 46.1567 682.498 47.5901 713.374 48.4637C717.147 47.6583 746.516 45.9792 732.66 44.8188C764.275 46.4843 810.189 47.4808 838.486 50.3613C847.457 49.6514 833.349 48.9825 828.636 48.7504L826.361 49.2146C807.317 48.3136 823.428 45.0509 786.029 46.73C782.904 41.3923 839.943 45.2557 872.74 44.5048L820.444 40.8735C908.542 33.5564 1027.46 41.4742 1114.74 41.5834C1089.14 43.2489 1067.72 41.6653 1070.77 45.829C1125 47.8358 1117.89 46.9211 1171.96 47.7675L1167.31 47.5491C1195.28 45.4195 1233.47 49.5286 1251.81 45.7881C1239.73 43.4946 1212.11 47.945 1211.45 43.3035L1279.68 43.6584C1258.24 40.9145 1211.45 43.3035 1185.44 42.6482C1166.66 42.9076 1223.17 43.2898 1214.25 46.3205C1150.56 46.1703 1136.04 43.1943 1104.71 38.8395C1085.62 35.6177 1132.53 35.5631 1144.37 35.5358C1184.91 40.3411 1244.12 42.5663 1307.3 40.3957L1341.99 36.8737C1357.62 38.4709 1362.13 40.8462 1369.76 42.7165C1373.58 43.6584 1378.2 44.4639 1385.38 44.9963C1388.97 45.2557 1393.2 45.4468 1398.31 45.556C1400.86 45.6106 1403.63 45.6379 1406.64 45.6379C1409.62 45.6106 1412.83 45.5969 1416.32 45.5696L1399.59 43.0441C1405.77 42.5527 1410.89 42.225 1415.22 42.0203C1417 41.9384 1418.61 41.8701 1420.08 41.8018C1421.51 41.7609 1422.82 41.7472 1424 41.7472C1421.6 41.5015 1419.19 41.2694 1416.75 41.0237C1413.71 40.778 1410.66 40.5323 1407.59 40.2865C1401.39 39.7814 1395.16 39.2627 1388.99 38.7576C1376.67 37.6928 1364.64 36.6553 1353.66 35.6997C1363.42 34.0751 1375.76 33.6792 1389.54 33.9386C1396.44 34.0751 1403.69 34.3755 1411.16 34.7714C1415 34.9898 1418.9 35.2082 1422.84 35.4266C1426.68 35.6723 1430.55 35.9181 1434.45 36.1775C1433.96 49.8698 1433.48 63.7397 1432.99 77.3502C1432.55 90.7968 1432.19 103.984 1432.04 116.489C1432.54 113.172 1432.7 90.8924 1433.72 84.2578C1434.66 179.381 1429.94 278.995 1429.31 352.467C1431.05 383.524 1430.46 291.446 1433.04 306.585C1432.05 345.205 1434.31 388.835 1431.92 399.183C1435.34 382.296 1432.17 487.944 1435.37 414.063C1436.85 553.294 1433.72 706.558 1431.78 847.236C1432.81 840.41 1433.66 840.411 1434.36 846.322C1434.31 798.705 1435.29 728.755 1437.67 702.326C1439.42 733.602 1435.34 776.344 1436.37 785.341C1437.21 769.369 1437.19 737.643 1438.91 737.096C1440.84 777.86 1438.11 800.698 1437.78 829.394L1436.91 813.831C1434.59 903.275 1430.95 863.195 1431.89 958.181C1433.97 992.583 1433.6 957.854 1436.18 957.267C1435.16 979.641 1437.97 1051.76 1435.23 1075.04L1435.01 1017.55C1434.28 1057.8 1434.29 1095.84 1433.4 1123.72C1433.96 1120.84 1434.53 1118.5 1434.75 1109.97C1433.92 1141.94 1434.13 1182.98 1432.41 1199.33L1435.17 1208.33C1433.95 1189.26 1433.74 1132.24 1435.28 1122.61C1437.69 1128.09 1436.19 1185.76 1436.38 1211.02C1437.15 1099.64 1441.43 1098.27 1439.64 1003.97L1438.79 1019.87C1436.71 961.212 1440.15 900.763 1440.07 849.366C1440.64 863.836 1441.64 866.771 1442.1 859.973C1439.95 746.27 1441.58 634.424 1440.27 504.817L1442.99 465.815L1440.93 463.399C1440.02 399.988 1443.84 449.666 1443.64 408.793C1443.64 424.329 1443.31 421.544 1442.79 424.711C1445.14 351.116 1440.87 383.825 1441.53 342.529C1439.31 362.16 1440.74 422.131 1437.8 403.715C1440.15 330.284 1438.85 216.103 1443.82 205.332C1443.44 178.835 1443.23 151.109 1443.17 122.782C1443.17 108.626 1443.17 94.3052 1443.17 79.9303C1443.22 61.4053 1443.29 42.7984 1443.34 24.1915C1431.84 24.0959 1420.35 24.0004 1408.9 23.9048C1400.53 23.782 1392.19 23.6591 1383.91 23.5499C1367.35 23.2769 1351.06 22.9902 1335.23 22.7308C1303.6 22.1711 1273.88 21.666 1247.93 21.4885C1236.35 22.6625 1255.16 22.4168 1250.71 23.3451C1217.14 19.4544 1138.06 26.0617 1137.53 22.5806C1121.29 23.5362 1114.5 26.089 1110.09 27.0173C1088.55 25.3519 1062.75 24.5328 1035.37 24.055L1055.4 25.0106L1053.21 25.4747L1024.79 24.1232L1025.85 23.9048C957.713 22.9083 878.98 23.7547 817.168 20.0278C852.767 22.2939 808.207 24.2188 825.026 25.5839C793.603 20.0688 718.289 19.9459 657.205 20.5056C657.468 21.666 652.734 22.5943 659.905 23.5089L624.488 21.2428L629.181 22.6352C565.76 23.6591 496.696 17.5023 454.816 20.1234C480.706 20.7786 480.848 21.939 483.447 23.7956C438.008 23.6591 395.147 23.5908 342.062 21.9254C344.904 22.2666 346.755 22.6489 346.836 23.0721C332.93 23.5499 316.213 22.1847 301.973 21.5158L300.041 24.2871C272.887 23.0038 237.824 24.4372 205.552 22.212C192.901 25.27 127.376 19.3862 90.1085 20.6694C75.8487 20.0005 121.177 23.8639 81.1886 23.7C78.3568 20.6831 65.3814 20.6558 52.7195 20.5602C46.3885 20.5056 40.1385 20.451 35.2739 20.0005C34.0603 19.8913 32.9276 19.7411 31.9062 19.5773C31.3904 19.4954 30.9151 19.3998 30.46 19.3043C30.2375 19.2497 30.015 19.1951 29.8026 19.1405C29.4385 19.0859 29.0846 19.0313 28.7407 18.9767C26.0101 18.4989 24.0481 17.8845 23.2087 17.0791L-1.98365 17.9937L-1.46787 42.894L-1.20493 55.0437L-1.07345 60.9821L-0.941979 64.4632L-3.33884 74.8793C1.1616 114.974 -5.3514 135.942 -3.92542 195.599C-3.40964 192.445 -3.23771 186.057 -2.89386 189.114C-3.38941 208.39 -3.70292 252.853 -4.92664 218.397C-4.90641 250.191 -6.01888 358.392 -3.48043 309.834C-4.85585 313.342 -3.6827 268.88 -3.18714 249.645C-1.12402 252.17 -1.9432 299.95 0.301962 311.813C0.0794687 313.356 -0.274498 319.649 -0.618352 324.209L0.65593 331.021C-1.60946 390.76 0.0187893 451.481 -2.90397 494.947C-2.26683 497.473 -1.77127 507.944 -1.92297 528.475L-4.50188 529.349L-4.45131 592.869L-0.699259 563.123C0.049129 632.827 -4.20859 681.876 -4.84573 739.117C-0.547559 753.833 -6.47398 850.84 -2.65114 900.436L-1.4881 855.7C-2.26683 951.287 0.32219 966.495 -1.15436 1055.65C-2.59046 980.024 -1.73082 979.587 -5.25027 869.433C-3.45009 980.024 -7.67747 1060.5 -5.17947 1161.75C-4.15803 1154.98 -3.50066 1129.58 -2.43876 1154.35C-4.65358 1174.12 -2.35785 1249.75 -4.94687 1234.76C-4.06701 1266.2 -1.64991 1271.67 -1.29595 1290.89L-4.47154 1396.42L-3.95576 1393.18C-3.56134 1404.99 -3.23771 1416.69 -2.97476 1428.3C-2.91408 1431.2 -2.8534 1434.1 -2.79272 1436.99L-2.71182 1443.53C-2.68148 1446.12 -2.66125 1448.73 -2.63091 1451.33C-2.53989 1461.61 -2.45898 1471.83 -2.36796 1482.04C9.38375 1481.92 21.0748 1481.8 32.7051 1481.69C39.6328 1481.65 46.52 1481.62 53.3869 1481.58C67.1108 1481.58 80.7335 1481.74 94.2955 1481.99C121.419 1482.48 148.291 1483.37 175.283 1484.24C229.278 1485.97 283.749 1487.68 341.658 1486.18L339.079 1484.32L372.463 1487.05C346.3 1485.24 383.79 1484.72 385.843 1483.09L471.281 1487.13C473.202 1485.51 468.166 1481.81 447.211 1482.53V1482.55ZM-1.58923 531.902L-1.40719 504.599C-1.53867 499.125 -1.56901 493.473 -1.29595 487.275L-1.40719 504.599C-1.06334 518.633 0.0187888 528.939 -1.58923 531.902ZM1442.53 138.604C1441.33 151.737 1442.16 119.656 1441.99 110.509L1441.68 154.972C1442.36 161.143 1442.35 145.075 1442.53 138.604ZM15.0573 530.305L16.7867 545.54L15.4315 565.034L15.0573 530.305ZM15.209 917.773L16.2103 879.153L16.5541 882.389L15.5529 920.613L15.209 917.787V917.773ZM1.3133 1348.23C1.41443 1345.79 1.48522 1343.53 1.65715 1340.78C1.58636 1343.21 1.465 1345.79 1.3133 1348.23C0.0693555 1378.06 3.16404 1389.92 0.160377 1414.18C-2.40842 1384.41 0.251396 1365.27 1.3133 1348.23ZM1.27284 667.529C1.60659 654.587 1.7684 648.226 1.59647 638.793C0.575023 645.509 -0.952094 671.447 -1.30606 652.444C-0.112685 639.229 0.190716 594.931 1.89987 594.303C0.049129 632.841 4.8732 660.089 1.27284 667.515V667.529ZM220.136 23.9185L212.945 24.1642L239.28 25.9798L220.136 23.9185ZM342.821 26.2802C357.415 29.2698 394.945 28.7511 420.906 29.4063C427.632 26.8399 401.266 23.8775 370.724 24.1505C334.983 21.8844 357.222 28.1095 342.821 26.2802ZM4.61025 965.062L6.13737 955.246L6.31941 964.488L7.31052 926.21C9.41409 976.515 5.49011 1012.45 4.83275 1038.14C4.99456 1015.68 8.71627 954.332 4.60014 965.048L4.61025 965.062ZM604.362 27.7409C630.516 29.5565 677.684 31.7953 673.356 33.8977C675.024 29.9524 637.15 28.1504 625.368 28.1777C618.531 28.4098 613.586 28.1914 604.352 27.7409H604.362ZM602.957 35.1536C565.021 33.3516 562.422 31.5087 533.468 27.8364C571.019 26.171 581.274 31.2356 576.804 33.338C602.957 35.1536 597.9 32.6008 611.877 32.123L602.957 35.1536ZM563.565 24.0959L548.112 24.642C529.837 26.2802 526.034 30.7442 500.407 26.2802L548.112 24.642C552.198 24.2598 557.254 24.0277 563.565 24.0959ZM882.52 24.3007L866.935 22.9492C882.308 23.0857 884.098 23.6727 882.52 24.3007L895.495 25.4474C861.687 26.8672 879.082 25.502 882.52 24.3007ZM639.264 25.3655L594.441 24.9696C597.02 26.8262 624.984 25.857 639.264 25.3655ZM872.518 27.7955C853.636 28.0549 804.384 28.6009 811.231 28.3415C815.701 26.2529 860.544 26.6488 872.518 27.7955ZM1436.56 613.742L1436.7 575.614L1438.77 594.043L1436.56 613.742ZM1434.99 166.371L1436.02 175.804L1435.87 197.974L1434.99 166.371ZM1224.61 35.5768C1226.08 34.9761 1225.29 34.2116 1222.75 33.57C1218.1 33.3243 1214.04 32.9694 1212.11 32.3824C1216.29 32.3824 1220.29 32.8875 1222.75 33.57C1235 34.198 1253.23 33.8567 1261.54 32.9967C1256.62 31.6179 1237.76 31.8773 1230.47 30.9626C1258.41 27.6726 1321.18 37.5562 1303.27 28.0685C1315.1 29.2016 1355.58 31.6998 1341.59 33.338C1309.58 32.7919 1248.9 33.8158 1224.6 35.5631C1223.19 36.0682 1220.53 36.4641 1215.03 36.5324C1216.63 36.1775 1220.29 35.8635 1224.6 35.5631L1224.61 35.5768ZM812.778 37.6245C801.229 37.3924 796.213 37.1057 793.927 36.7918C783.996 36.0955 776.441 35.0307 779.374 33.7338C803.515 34.8806 788.082 35.9454 793.927 36.7918C799.995 37.215 806.538 37.5426 812.778 37.6245ZM739.972 38.1979L777.766 39.9862L758.722 37.9385L815.701 41.7882C783.015 43.6857 745.029 40.737 739.972 38.1979ZM726.673 40.0135L718.876 37.7474L730.8 40.0545L726.673 39.9999L728.463 40.5186L664.78 39.2217L726.673 39.9999V40.0135ZM75.9802 35.4812C52.1127 43.2898 132.291 41.0237 144.741 44.7915C147.401 42.1841 171.551 38.116 109.344 38.2115C163.097 35.5904 143.011 43.2625 175.01 36.7235C149.262 37.215 118.254 35.1809 113.663 34.9625L144.003 34.6894C126.83 29.8568 97.2991 37.0784 75.9802 35.4812ZM11.8615 391.401L11.73 445.297L12.2054 394.282L11.8615 391.401ZM203.742 1460.66C200.921 1458.82 252.317 1455.49 264.544 1458.96C238.653 1459.46 210.356 1459.27 203.742 1460.66ZM627.259 1461.2L582.396 1459.64C591.043 1455.45 622.465 1459.82 643.501 1459.08C650.813 1461.15 634.247 1459.79 627.259 1461.18V1461.2ZM919.12 1461.21L933.39 1461.88L918.382 1457.73L919.11 1461.2L919.12 1461.21ZM899.48 1455.68C908.481 1453.81 877.827 1452.94 870.596 1453.17L899.48 1455.68ZM1162.41 1452.05L1143.7 1452.31L1160.62 1455.99L1162.41 1452.05ZM1132.61 1456.36C1128.21 1453.71 1130.07 1450.15 1087 1451.93C1085.21 1454.71 1096.93 1454.68 1080.94 1457.96C1095.12 1458.63 1106.74 1457.46 1113.82 1457.22C1104.17 1456.77 1092.76 1457.95 1090.13 1456.1C1106.18 1455.05 1122.68 1455.39 1132.6 1456.38C1134.11 1457.32 1136.51 1458.15 1142.17 1458.57C1142.03 1457.73 1138.38 1456.95 1132.6 1456.38L1132.61 1456.36ZM976.574 1459.28C970.88 1459.61 965.965 1459.98 963.71 1460.46L961.111 1459.76C966.956 1458.56 972.013 1458.83 976.564 1459.3C982.794 1458.93 990.045 1458.62 997.519 1458.32C1002.29 1455.97 972.802 1454.37 965.025 1453.06C979.062 1453.73 991.198 1456.02 1009.8 1454.62C1007.34 1453.92 1009.68 1453.46 997.964 1453.48L1023.65 1452.96C1053.05 1456.23 1024.98 1457.25 997.519 1458.32C996.649 1458.83 994.576 1459.37 989.378 1459.97C984.999 1460.31 980.933 1459.72 976.564 1459.3L976.574 1459.28ZM1183.04 1464.53L1168.96 1463.86C1161.73 1462.94 1166.32 1462.01 1163.8 1461.32C1180.3 1461.52 1201.83 1463.12 1183.04 1464.53ZM338.381 1465.33C347.726 1464.62 326.134 1461.86 305.139 1462.6L316.314 1459.12C316.85 1461.43 359.023 1461.14 363.756 1461.37C371.209 1464.59 354.785 1463.23 338.391 1465.35L338.381 1465.33ZM9.9501 579.163C13.2066 568.815 11.2547 496.285 12.1042 480.259C12.8223 517.977 13.5808 603.749 9.9501 579.163ZM8.62525 453.379C8.66571 433.543 8.3623 427.892 9.99055 429.939C10.6681 420.315 9.7984 404.602 10.476 394.91C11.9121 433.53 9.31296 431.113 8.62525 453.379C8.61514 458.566 8.5848 464.423 8.48367 471.808C8.38253 463.809 8.48367 458.239 8.62525 453.379ZM8.42298 1227.59L6.03623 1253.97L6.24861 1295.17L8.42298 1227.59ZM165.564 1473.24C163.056 1471.38 198.109 1471.34 205.411 1472.25C203.176 1469.82 179.672 1470.14 160.973 1469.88C158.576 1469.67 154.662 1469.55 148.665 1469.56C152.326 1469.74 156.381 1469.82 160.973 1469.88C167.981 1470.45 163.107 1471.69 163.107 1472.55L153.802 1473.26L179.672 1473.92L165.564 1473.24ZM742.45 1475.86C763.385 1473.96 765.883 1474.66 779.971 1475.32C775.45 1476.27 756.68 1476.53 742.45 1475.86ZM2.58758 1435.69C2.65837 1439.6 2.71905 1442.89 2.76962 1445.65C2.8303 1448.8 2.90109 1451.31 2.97189 1453.29C3.11347 1457.24 3.25506 1459 3.41687 1459.3C3.73039 1459.89 4.06413 1454.7 4.40798 1449.09C4.57991 1446.33 4.76195 1443.38 4.91365 1440.87C4.99456 1439.65 5.07547 1438.43 5.15637 1437.88C5.23728 1437.2 5.31819 1436.65 5.38898 1436.28C5.54068 1435.54 5.69238 1435.54 5.82385 1436.69C5.85419 1436.98 5.89465 1437.35 5.92499 1437.78C5.9351 1438 5.95533 1438.25 5.97555 1438.51C5.98567 1438.83 6.00589 1439.2 6.02612 1439.59C6.0868 1441.18 6.14748 1443.23 6.19805 1445.77L6.00589 1419.12C6.38009 1427.08 6.53179 1433.03 6.53179 1437.66C6.53179 1439.07 6.51156 1440.36 6.50145 1441.58C6.47111 1442.89 6.45088 1444.1 6.43065 1445.25C6.36997 1447.54 6.27895 1449.55 6.16771 1451.39C5.73283 1458.75 5.0249 1463.46 4.67093 1472.55C7.85664 1472.81 12.2863 1472.94 18.688 1472.77L4.25628 1473.11L4.15515 1465.48C3.79107 1461.29 3.51801 1460.68 3.31574 1462.67C3.11347 1464.65 2.97189 1469.2 2.86064 1475.01C8.24094 1475.19 15.1989 1475.42 21.095 1475.63C24.0886 1475.75 26.8293 1475.88 28.9935 1476.06C29.2666 1476.09 29.5296 1476.1 29.7723 1476.13C29.9341 1476.16 30.0959 1476.18 30.2476 1476.2C30.5409 1476.25 30.8139 1476.29 31.0466 1476.35C31.5219 1476.46 31.8657 1476.58 32.0579 1476.7C31.3904 1476.73 30.6926 1476.77 29.9543 1476.81C28.8317 1476.84 27.6586 1476.87 26.445 1476.89C23.9571 1476.92 21.3074 1476.95 18.5566 1476.98C13.0549 1477 7.16893 1476.98 1.44477 1476.91C1.49534 1468.66 1.57625 1460.58 1.67738 1453.47C1.73806 1449.92 1.78863 1446.6 1.82908 1443.6C1.85942 1442.11 1.88976 1440.69 1.90999 1439.37C1.9201 1438.85 1.94033 1438.36 1.95044 1437.88C1.96055 1437.48 1.98078 1437.1 1.99089 1436.75C2.2235 1430.94 2.45611 1429.32 2.57747 1435.72L2.58758 1435.69ZM775.581 1477.41C810.513 1475.04 804.334 1479.93 825.501 1480.35C797.679 1482.48 801.745 1478.07 775.581 1477.41ZM213.977 1482.44L211.762 1482.89L240.11 1484.24L242.365 1483.78L213.977 1482.44Z" fill="#655D59"/>
<path d="M1141.64 49.1738C1146.5 49.4059 1158.16 49.3786 1158.48 50.539L1123.15 50.5936C1108.97 49.911 1134.57 49.4196 1141.64 49.1738Z" fill="#655D59"/>
<path d="M1011.35 43.5764C983.119 43.3853 997.824 46.3749 983.523 45.706L985.131 41.7607L1011.35 43.5764Z" fill="#655D59"/>
<path d="M1027.04 23.6182L1035.36 24.0137C1032.24 23.9728 1029.16 23.9183 1025.84 23.8773L1027.03 23.6318L1027.04 23.6182Z" fill="#655D59"/>
<path d="M875.451 47.4942L894.969 51.8763C871.274 50.7569 870.95 47.2758 875.451 47.4942Z" fill="#655D59"/>
<path d="M767.795 50.4424L784.361 51.7939L732.52 50.4833L767.795 50.4424Z" fill="#655D59"/>
<path d="M638.02 48.3131L633.439 49.2406L597.9 48.1357L638.02 48.3131Z" fill="#655D59"/>
</g>
<defs>
<clipPath id="clip0_125_2887">
<rect width="1443" height="63" fill="white"/>
</clipPath>
</defs>
</svg>
